<svg width="48" height="47" viewBox="0 0 48 47" fill="none" xmlns="http://www.w3.org/2000/svg">
<g clip-path="url(#clip0_1_410)">
<path d="M35.9741 21.443C35.998 21.2574 35.9501 21.0698 35.8403 20.9185C35.7305 20.7672 35.5672 20.6639 35.3837 20.6296C34.8497 20.4534 34.3089 20.2975 33.7839 20.0964C33.6102 20.0231 33.4676 19.8912 33.3806 19.7236C33.1721 19.2966 32.9893 18.8576 32.833 18.4087C32.7733 18.2422 32.7733 18.0601 32.833 17.8936C33.0719 17.3695 33.3558 16.8656 33.6104 16.3483C33.8222 15.9213 33.7816 15.6705 33.4482 15.3293C32.7887 14.6606 32.1247 13.9956 31.4562 13.3344C31.3248 13.2053 31.1567 13.1203 30.9751 13.0911C30.7934 13.062 30.6072 13.0901 30.4422 13.1717C29.96 13.4112 29.4778 13.6507 29.0069 13.9082C28.9027 13.9748 28.7822 14.0115 28.6587 14.0143C28.5351 14.0171 28.4132 13.9859 28.3061 13.924C27.9169 13.7244 27.5123 13.5566 27.0961 13.4225C26.995 13.3958 26.9031 13.3419 26.8305 13.2667C26.7578 13.1914 26.707 13.0976 26.6837 12.9955C26.517 12.4563 26.3427 11.9201 26.1609 11.3869C26.01 10.935 25.7937 10.7881 25.325 10.7859H24.5453C24.0654 10.7859 23.5832 10.7859 23.1055 10.7859C22.9094 10.7859 22.7111 10.7859 22.5151 10.7859C22.3358 10.7869 22.1612 10.8434 22.0152 10.9478C21.8691 11.0521 21.7588 11.1992 21.6994 11.3688C21.512 11.8472 21.3547 12.3369 21.2285 12.8351C21.1226 13.357 18.867 13.8585 18.867 13.8585C18.1414 13.8382 17.7764 13.5987 17.2378 13.3253C17.1339 13.2727 17.017 13.2512 16.9012 13.2632C16.7854 13.2752 16.6754 13.3203 16.5844 13.3931C16.0751 13.802 15.0837 14.6086 14.9913 14.7329C14.8117 14.9416 14.6191 15.1385 14.4144 15.3225C14.0652 15.684 14.0269 15.9145 14.2545 16.3686C14.5023 16.8634 14.7457 17.3582 15.0116 17.8394C15.0686 17.9342 15.0988 18.0427 15.0988 18.1534C15.0988 18.2641 15.0686 18.3727 15.0116 18.4675C14.8178 18.8741 14.7029 19.317 14.4956 19.7169C14.2702 20.1687 13.6258 20.3427 13.0174 20.4127C12.7453 20.4422 12.4935 20.5711 12.3102 20.7749C12.1269 20.9787 12.0249 21.2431 12.0237 21.5175V21.8858V23.2978V24.5653C12.0245 24.7639 12.099 24.9552 12.2327 25.1018C12.3664 25.2483 12.5497 25.3398 12.747 25.3583C13.2163 25.3905 13.6777 25.4956 14.1148 25.6701C14.2652 25.7415 14.3879 25.8606 14.464 26.009C14.6725 26.4507 14.8576 26.9032 15.0183 27.3646C15.078 27.5303 15.078 27.7117 15.0183 27.8774C14.793 28.379 14.5249 28.8625 14.277 29.355C14.1837 29.538 14.1507 29.7459 14.1826 29.9489C14.2146 30.1518 14.31 30.3394 14.455 30.4846C15.0949 31.1308 15.7371 31.777 16.3838 32.4163C16.7331 32.7643 16.9945 32.8094 17.4294 32.5926C17.9341 32.344 18.4276 32.0684 18.9413 31.8402C19.1178 31.778 19.3102 31.778 19.4866 31.8402C19.9348 31.9985 20.3741 32.181 20.8026 32.387C20.9513 32.4569 21.0708 32.5768 21.1406 32.7259C21.3366 33.2523 21.4943 33.7945 21.6724 34.3299C21.8504 34.8654 22.0554 34.9964 22.5737 35.0077C23.475 35.0077 24.3763 35.0077 25.2776 35.0077C25.8027 35.0077 26.019 34.8473 26.179 34.3435C26.339 33.8397 26.517 33.2658 26.713 32.7394C26.7816 32.5892 26.9004 32.4678 27.0487 32.396C27.4431 32.2085 27.8667 32.0797 28.2543 31.8809C28.3767 31.8087 28.517 31.7728 28.6589 31.7771C28.8009 31.7815 28.9387 31.8261 29.0565 31.9057C29.4891 32.1543 29.942 32.3711 30.3904 32.5948C30.8388 32.8185 31.107 32.7914 31.4697 32.4344C32.1277 31.7822 32.7827 31.1255 33.4346 30.4643C33.7816 30.1141 33.8177 29.8679 33.5901 29.416C33.3445 28.9212 33.0966 28.4287 32.8352 27.9452C32.7802 27.8561 32.7497 27.7539 32.7469 27.6491C32.7442 27.5443 32.7692 27.4407 32.8195 27.3487C33.02 26.933 33.162 26.488 33.3648 26.0722C33.4521 25.9046 33.5935 25.7716 33.7659 25.6949C34.2886 25.4916 34.8317 25.3357 35.3657 25.1595C35.8029 25.0149 35.9606 24.8161 35.9651 24.3642C35.9651 24.0185 35.9651 23.6706 35.9651 23.3249C35.9651 22.8535 35.9651 22.3821 35.9651 21.9106C35.9764 21.7389 35.9741 21.5921 35.9741 21.443ZM34.5725 23.3024C34.5725 23.4063 34.568 23.5102 34.559 23.6141C34.5448 23.6918 34.513 23.7651 34.4662 23.8286C34.4193 23.892 34.3586 23.9439 34.2886 23.9801C33.8019 24.1699 33.2972 24.3236 32.7969 24.4772C32.6472 24.5202 32.5108 24.6006 32.4005 24.7109C32.2902 24.8211 32.2095 24.9576 32.166 25.1075C31.9069 25.7966 31.6207 26.4767 31.3165 27.1409C31.2422 27.2778 31.2032 27.4312 31.2032 27.5871C31.2032 27.743 31.2422 27.8964 31.3165 28.0333C31.5576 28.4852 31.7672 28.9574 32.0195 29.407C32.0498 29.4456 32.0721 29.49 32.0849 29.5375C32.0977 29.585 32.1008 29.6345 32.0941 29.6833C32.0873 29.732 32.0709 29.7788 32.0457 29.821C32.0205 29.8632 31.9871 29.8999 31.9474 29.9289C31.6004 30.2542 31.2715 30.5908 30.938 30.9388C30.8865 31.0068 30.8103 31.0518 30.726 31.0641C30.6417 31.0763 30.556 31.0549 30.4873 31.0043C30.0254 30.7558 29.5499 30.5298 29.0857 30.2836C28.9425 30.2083 28.7827 30.1701 28.621 30.1725C28.4592 30.1749 28.3007 30.2177 28.1596 30.2971C27.5122 30.5984 26.8557 30.871 26.1902 31.115C26.032 31.1561 25.8869 31.237 25.7686 31.3501C25.6503 31.4631 25.5627 31.6046 25.5142 31.7611C25.3768 32.213 25.1965 32.6648 25.0839 33.1167C25.0808 33.1851 25.0623 33.2519 25.0297 33.3121C24.9971 33.3723 24.9513 33.4243 24.8957 33.4641C24.8402 33.5039 24.7763 33.5306 24.709 33.542C24.6416 33.5535 24.5726 33.5494 24.507 33.5302C24.3074 33.5189 24.1073 33.5189 23.9076 33.5302C22.9184 33.5302 22.8666 33.5437 22.621 32.5745C22.3957 31.6843 22.0126 31.0721 21.0302 30.8958C20.5525 30.81 20.1131 30.505 19.6782 30.2813C19.5475 30.2075 19.4 30.1687 19.25 30.1687C19.1001 30.1687 18.9526 30.2075 18.8219 30.2813C18.3555 30.5276 17.88 30.7535 17.4204 31.0043C17.3809 31.0335 17.3359 31.0544 17.2882 31.0658C17.2405 31.0772 17.1909 31.0789 17.1425 31.0707C17.0942 31.0624 17.0479 31.0445 17.0066 31.018C16.9653 30.9914 16.9298 30.9568 16.9021 30.9162C16.5866 30.5773 16.2554 30.2497 15.9174 29.9334C15.8798 29.9066 15.8478 29.8727 15.8234 29.8334C15.7991 29.7942 15.7827 29.7505 15.7754 29.7048C15.768 29.6592 15.7698 29.6125 15.7807 29.5676C15.7915 29.5227 15.8112 29.4803 15.8385 29.4431C16.0887 28.9799 16.3117 28.5032 16.5573 28.0378C16.6333 27.8994 16.6731 27.744 16.6731 27.586C16.6731 27.428 16.6333 27.2725 16.5573 27.1341C16.2554 26.4767 15.976 25.8056 15.7236 25.1279C15.6786 24.9702 15.5937 24.8269 15.4773 24.7117C15.3608 24.5965 15.2167 24.5134 15.0589 24.4704C14.5564 24.319 14.0629 24.1405 13.5604 23.9892C13.4746 23.9732 13.3983 23.9245 13.3475 23.8533C13.2966 23.7821 13.2753 23.694 13.2878 23.6074C13.2878 23.5057 13.2878 23.4063 13.2878 23.3046C13.2878 22.9273 13.2878 22.5523 13.2878 22.175C13.2765 22.078 13.3023 21.9803 13.3599 21.9016C13.4199 21.8359 13.4985 21.7901 13.5852 21.7706C14.0877 21.6214 14.5812 21.443 15.0837 21.2871C15.227 21.2449 15.3576 21.1677 15.4638 21.0624C15.57 20.9572 15.6485 20.8271 15.6921 20.6838C15.958 19.9835 16.2486 19.2899 16.5551 18.6075C16.6265 18.4754 16.6639 18.3275 16.6639 18.1772C16.6639 18.0269 16.6265 17.8789 16.5551 17.7468C16.3117 17.2791 16.0886 16.8024 15.8363 16.3415C15.8078 16.3052 15.7868 16.2635 15.7745 16.2189C15.7622 16.1744 15.7589 16.1278 15.7648 16.0819C15.7706 16.0361 15.7856 15.9919 15.8087 15.9519C15.8318 15.9119 15.8626 15.8769 15.8994 15.849C16.2554 15.5123 16.5754 15.1486 16.9472 14.8232C17.006 14.7817 17.0737 14.7543 17.1448 14.7434C17.216 14.7324 17.2887 14.7381 17.3573 14.76C17.835 14.9746 18.3014 15.2118 18.7633 15.4671C18.9115 15.5471 19.0776 15.588 19.2459 15.586C19.4142 15.5841 19.5792 15.5393 19.7255 15.4558C20.3587 15.1621 21.0054 14.8955 21.6588 14.6538C21.8271 14.6075 21.9806 14.5182 22.1042 14.3946C22.2278 14.2711 22.3174 14.1175 22.3641 13.9489C22.5038 13.4541 22.6863 12.9729 22.8328 12.4804C22.8426 12.4131 22.8754 12.3514 22.9255 12.3057C22.9756 12.2599 23.04 12.233 23.1077 12.2296H23.1798C23.6305 12.2296 24.0924 12.2454 24.5476 12.2296H24.6445C24.7362 12.2152 24.8298 12.2378 24.9049 12.2924C24.98 12.347 25.0306 12.4292 25.0456 12.521C25.1898 13.0022 25.361 13.4744 25.4962 13.9557C25.5431 14.1243 25.633 14.2778 25.7571 14.401C25.8812 14.5243 26.0351 14.6129 26.2038 14.6583C26.8496 14.8884 27.4836 15.1508 28.1033 15.4445C28.2587 15.5362 28.4353 15.5856 28.6156 15.5875C28.7958 15.5895 28.9735 15.5441 29.1308 15.4558C29.5815 15.2118 30.0321 14.9746 30.5053 14.7668C30.5734 14.744 30.646 14.7378 30.7169 14.7488C30.7878 14.7598 30.8551 14.7877 30.9132 14.83C31.2692 15.1463 31.5892 15.5078 31.9339 15.8286C31.9747 15.8562 32.0095 15.8917 32.0361 15.9331C32.0628 15.9745 32.0808 16.021 32.089 16.0695C32.0972 16.1181 32.0955 16.1679 32.084 16.2158C32.0724 16.2637 32.0513 16.3088 32.0218 16.3483C31.7739 16.8001 31.5711 17.2655 31.321 17.7196C31.2429 17.8619 31.202 18.0216 31.202 18.1839C31.202 18.3463 31.2429 18.506 31.321 18.6482C31.6252 19.3057 31.9046 19.9767 32.157 20.6545C32.1983 20.805 32.277 20.9427 32.3858 21.0545C32.4946 21.1663 32.6298 21.2487 32.7789 21.2938C33.2814 21.4475 33.7749 21.626 34.2774 21.7773C34.3539 21.7959 34.424 21.8349 34.4802 21.8903C34.5152 21.93 34.5413 21.9768 34.5568 22.0274C34.5724 22.0781 34.577 22.1314 34.5703 22.184C34.5725 22.5568 34.5725 22.9318 34.5725 23.3024Z" fill="#062C69"/>
<path d="M28.2048 20.4353C28.2503 20.4805 28.2857 20.5349 28.3086 20.5949C28.3315 20.655 28.3413 20.7192 28.3375 20.7833C28.3337 20.8475 28.3162 20.9101 28.2863 20.9669C28.2564 21.0238 28.2148 21.0736 28.1642 21.113C28.1124 21.1537 28.0583 21.1989 27.9997 21.2418C27.8902 21.3253 27.7849 21.4143 27.6843 21.5084L27.6302 21.5626L27.4927 21.6982L27.0218 22.1681L26.641 22.5477C26.2624 22.9272 25.8816 23.3068 25.5143 23.6886L24.7527 24.4523L23.6689 25.548L23.3489 25.8688C23.2783 25.9519 23.1915 26.0196 23.0939 26.0678C22.9962 26.116 22.8898 26.1436 22.7811 26.149C22.7473 26.1512 22.7134 26.1512 22.6797 26.149C22.6191 26.1382 22.56 26.12 22.5039 26.0948L22.4386 26.0586L22.4093 26.0405H22.3597L22.1141 25.7739C22.0987 25.76 22.0844 25.7449 22.0713 25.7288L21.8076 25.4599L21.5282 25.1752L21.2781 24.9222L21.1452 24.7866L20.7666 24.4116L20.5142 24.1563C20.3452 23.9868 20.1762 23.8197 20.0072 23.648L19.9036 23.5395L19.8473 23.4785L19.8337 23.4627L19.7977 23.4243C19.756 23.3805 19.7235 23.3288 19.7021 23.2722C19.6807 23.2156 19.6709 23.1553 19.6732 23.0948C19.6755 23.0343 19.6899 22.9749 19.7155 22.9202C19.7412 22.8654 19.7775 22.8163 19.8225 22.7759L19.8946 22.7058L19.9261 22.6629L20.2055 22.3918L20.5593 22.0529L20.6021 22.0077C20.6441 21.9643 20.6944 21.9298 20.7499 21.9063C20.8055 21.8827 20.8652 21.8706 20.9255 21.8706C20.9858 21.8706 21.0455 21.8827 21.101 21.9063C21.1565 21.9298 21.2068 21.9643 21.2488 22.0077C21.2713 22.0326 21.2961 22.0552 21.3209 22.0778L21.3389 22.0958L21.4043 22.1613L21.4696 22.2223L21.5733 22.3263L21.5913 22.3398C21.6251 22.3782 21.6612 22.4121 21.695 22.4505C21.8392 22.5906 21.9789 22.7329 22.1208 22.8753C22.2628 23.0176 22.4002 23.1577 22.5422 23.2978C22.6188 23.3746 22.718 23.4537 22.7675 23.4446H22.7811C22.8137 23.4333 22.8442 23.4165 22.8712 23.3949L22.9568 23.3226L22.9771 23.3023L25.2822 20.9956L26.4742 19.8026C26.5261 19.7462 26.5824 19.6942 26.6387 19.64L26.7221 19.5586C26.765 19.5158 26.8162 19.482 26.8724 19.4594C26.9287 19.4368 26.9889 19.4258 27.0494 19.4271C27.11 19.4284 27.1697 19.4419 27.225 19.4668C27.2802 19.4917 27.3299 19.5276 27.371 19.5722L27.5648 19.7778L27.6031 19.8139V19.8252C27.673 19.8975 27.7428 19.9698 27.815 20.0512L28.2048 20.4353Z" fill="#062C69"/>
<path d="M34.4825 21.8903C34.4263 21.8349 34.3563 21.7959 34.2797 21.7773C33.7772 21.6259 33.2837 21.4475 32.7812 21.2938C32.6321 21.2486 32.4969 21.1663 32.3881 21.0545C32.2794 20.9427 32.2007 20.805 32.1593 20.6544C31.907 19.9767 31.6276 19.2989 31.3234 18.6482C31.2453 18.506 31.2043 18.3463 31.2043 18.1839C31.2043 18.0216 31.2453 17.8618 31.3234 17.7196C31.5645 17.2678 31.774 16.7956 32.0241 16.3482C32.0536 16.3088 32.0747 16.2637 32.0863 16.2158C32.0978 16.1679 32.0996 16.1181 32.0913 16.0695C32.0831 16.0209 32.0651 15.9745 32.0385 15.9331C32.0118 15.8917 31.977 15.8561 31.9363 15.8286C31.5915 15.501 31.2715 15.1508 30.9155 14.83C30.8575 14.7876 30.7902 14.7598 30.7192 14.7488C30.6483 14.7378 30.5758 14.7439 30.5077 14.7667C30.0412 14.9746 29.5838 15.2186 29.1331 15.4558C28.9758 15.5441 28.7982 15.5895 28.6179 15.5875C28.4376 15.5855 28.261 15.5362 28.1056 15.4445C27.4859 15.1508 26.852 14.8884 26.2061 14.6583C26.0374 14.6129 25.8835 14.5242 25.7594 14.401C25.6354 14.2778 25.5454 14.1243 25.4986 13.9556C25.3611 13.4744 25.1898 13.0022 25.0479 12.521C25.0329 12.4292 24.9824 12.347 24.9073 12.2924C24.8321 12.2378 24.7385 12.2152 24.6468 12.2296H24.5499C24.0993 12.2454 23.6486 12.2296 23.1822 12.2296H23.11C23.0424 12.233 22.978 12.2599 22.9278 12.3056C22.8777 12.3514 22.845 12.4131 22.8351 12.4803C22.6887 12.9729 22.5062 13.4541 22.3665 13.9489C22.3197 14.1175 22.2302 14.271 22.1065 14.3946C21.9829 14.5181 21.8295 14.6074 21.6612 14.6538C21.0077 14.8955 20.361 15.1621 19.7278 15.4558C19.5815 15.5392 19.4165 15.584 19.2482 15.586C19.0799 15.588 18.9139 15.5471 18.7657 15.4671C18.3037 15.2208 17.8373 14.9746 17.3596 14.76C17.291 14.7381 17.2183 14.7324 17.1472 14.7433C17.076 14.7543 17.0083 14.7817 16.9495 14.8232C16.5845 15.1486 16.2577 15.5123 15.9017 15.8489C15.865 15.8769 15.8341 15.9118 15.811 15.9518C15.7879 15.9918 15.773 16.0361 15.7671 16.0819C15.7612 16.1278 15.7645 16.1743 15.7768 16.2189C15.7891 16.2635 15.8101 16.3051 15.8386 16.3415C16.091 16.7933 16.3141 17.2791 16.5574 17.7467C16.6288 17.8789 16.6662 18.0268 16.6662 18.1771C16.6662 18.3274 16.6288 18.4754 16.5574 18.6075C16.251 19.2853 15.9603 19.9834 15.6944 20.6838C15.6508 20.827 15.5723 20.9571 15.4662 21.0624C15.36 21.1677 15.2293 21.2449 15.086 21.287C14.5835 21.4429 14.09 21.6214 13.5876 21.7705C13.5009 21.7901 13.4222 21.8358 13.3622 21.9016C13.3046 21.9803 13.2788 22.078 13.2901 22.1749C13.3014 22.55 13.3014 22.925 13.2901 23.3046C13.2901 23.4063 13.2901 23.5057 13.2901 23.6073C13.2776 23.694 13.299 23.7821 13.3498 23.8533C13.4006 23.9244 13.4769 23.9731 13.5628 23.9892C14.0653 24.1405 14.5587 24.319 15.0612 24.4704C15.2169 24.5164 15.3583 24.6015 15.4719 24.7178C15.5855 24.8341 15.6675 24.9776 15.7102 25.1346C15.9625 25.8124 16.242 26.4902 16.5439 27.1409C16.6198 27.2793 16.6597 27.4347 16.6597 27.5927C16.6597 27.7507 16.6198 27.9061 16.5439 28.0446C16.2983 28.51 16.0752 28.9867 15.8251 29.4499C15.7978 29.4871 15.7781 29.5294 15.7672 29.5743C15.7564 29.6193 15.7546 29.6659 15.7619 29.7116C15.7693 29.7572 15.7856 29.8009 15.81 29.8402C15.8344 29.8794 15.8663 29.9134 15.904 29.9401C16.242 30.2564 16.58 30.584 16.8887 30.9229C16.9163 30.9635 16.9519 30.9982 16.9932 31.0247C17.0345 31.0513 17.0807 31.0692 17.1291 31.0774C17.1775 31.0856 17.227 31.084 17.2748 31.0726C17.3225 31.0612 17.3674 31.0402 17.4069 31.011C17.8576 30.7602 18.342 30.5343 18.8085 30.2881C18.9391 30.2142 19.0866 30.1754 19.2366 30.1754C19.3866 30.1754 19.5341 30.2142 19.6647 30.2881C20.1154 30.514 20.5503 30.8167 21.0167 30.9026C21.9992 31.0788 22.38 31.6911 22.6076 32.5812C22.8532 33.5505 22.905 33.5369 23.8942 33.5369C24.0938 33.5256 24.294 33.5256 24.4936 33.5369C24.5591 33.5562 24.6282 33.5602 24.6955 33.5488C24.7629 33.5373 24.8267 33.5107 24.8823 33.4709C24.9379 33.431 24.9837 33.3791 25.0163 33.3189C25.0489 33.2587 25.0674 33.1919 25.0704 33.1235C25.1831 32.6716 25.3634 32.2197 25.5008 31.7679C25.5493 31.6114 25.6368 31.4699 25.7551 31.3568C25.8734 31.2437 26.0186 31.1628 26.1768 31.1217C26.8423 30.8732 27.4987 30.6006 28.1462 30.3039C28.2872 30.2245 28.4458 30.1816 28.6075 30.1793C28.7693 30.1769 28.929 30.2151 29.0723 30.2903C29.5365 30.5366 30.0119 30.7625 30.4739 31.011C30.5425 31.0616 30.6283 31.0831 30.7126 31.0708C30.7969 31.0586 30.873 31.0136 30.9245 30.9455C31.249 30.5976 31.587 30.2677 31.934 29.9356C31.9736 29.9066 32.0071 29.87 32.0323 29.8278C32.0574 29.7856 32.0739 29.7387 32.0806 29.69C32.0874 29.6413 32.0842 29.5917 32.0714 29.5443C32.0586 29.4968 32.0364 29.4524 32.0061 29.4137C31.7582 28.9619 31.5555 28.4942 31.3031 28.0401C31.2287 27.9031 31.1898 27.7497 31.1898 27.5939C31.1898 27.438 31.2287 27.2846 31.3031 27.1476C31.6073 26.4699 31.8935 25.7921 32.1526 25.1143C32.1961 24.9643 32.2767 24.8278 32.3871 24.7176C32.4974 24.6074 32.6338 24.527 32.7835 24.4839C33.2837 24.3303 33.7885 24.1767 34.2752 23.9869C34.3451 23.9506 34.4059 23.8988 34.4527 23.8353C34.4996 23.7719 34.5314 23.6985 34.5456 23.6209C34.5456 23.517 34.5501 23.413 34.5591 23.3091C34.5591 22.9386 34.5591 22.5635 34.5591 22.1908C34.5686 22.1381 34.5667 22.084 34.5534 22.0322C34.5402 21.9803 34.516 21.9319 34.4825 21.8903ZM24.1488 29.7978C20.4624 29.9605 17.1974 26.9624 17.0284 23.2617C16.9793 22.342 17.1135 21.4218 17.4232 20.5547C17.7328 19.6877 18.2117 18.8912 18.8318 18.2118C19.4519 17.5324 20.2008 16.9837 21.0348 16.5978C21.8688 16.2119 22.7712 15.9965 23.6892 15.9642C27.4049 15.8128 30.6744 18.795 30.8254 22.4799C30.8794 23.4034 30.7483 24.3283 30.4399 25.2001C30.1314 26.0718 29.6518 26.8728 29.0294 27.5556C28.407 28.2384 27.6545 28.7892 26.8162 29.1755C25.9779 29.5618 25.0709 29.7757 24.1488 29.8046V29.7978Z" fill="#062C69"/>
<path d="M47.9866 24.8814C47.9257 22.918 47.0334 21.445 45.3119 20.4983C45.224 20.461 45.1494 20.3979 45.0979 20.3172C45.0464 20.2366 45.0205 20.1422 45.0235 20.0465C44.9488 18.3475 44.6611 16.6646 44.1672 15.0376C42.5268 9.71023 39.3001 5.62091 34.505 2.82165C29.9421 0.160211 25.0231 -0.567281 19.8585 0.420028C17.0902 0.941873 14.4665 2.05534 12.1657 3.6847C6.53695 7.67913 3.48071 13.1315 2.997 20.042C2.99626 20.1421 2.96589 20.2398 2.90973 20.3227C2.85357 20.4055 2.77416 20.4698 2.68154 20.5074C1.05014 21.4111 0.117271 22.8051 0.0474186 24.6667C-0.0269406 26.6391 -0.00215417 28.616 0.0474186 30.5906C0.0704109 31.6625 0.442132 32.6976 1.10598 33.5382C1.76983 34.3788 2.68945 34.9788 3.72482 35.247C6.47161 35.9925 8.26299 34.088 8.19764 31.8693C8.11652 29.0678 8.18187 26.264 8.17511 23.4625C8.18992 23.1187 8.16344 22.7743 8.09624 22.4368C7.97077 21.8317 7.66774 21.278 7.22608 20.8468C6.78441 20.4156 6.22427 20.1267 5.6176 20.0171C5.381 19.9651 5.28862 19.8793 5.32918 19.624C5.42382 19.014 5.46888 18.3927 5.57704 17.7849C6.06847 15.0768 7.14596 12.5096 8.73366 10.2641C10.3214 8.01859 12.3807 6.1493 14.7666 4.78785C17.1526 3.4264 19.8072 2.60588 22.5435 2.38406C25.2799 2.16224 28.0315 2.54452 30.6046 3.50396C33.8224 4.70563 36.6435 6.78092 38.7525 9.49786C40.9839 12.3099 42.3426 15.717 42.6598 19.2964C42.7183 19.9041 42.7071 19.9019 42.1347 20.0758C41.4494 20.2838 40.8523 20.7137 40.4368 21.2984C40.0213 21.883 39.8109 22.5893 39.8386 23.3066C39.8657 26.2437 39.8386 29.1627 39.8386 32.093C39.8301 32.357 39.8536 32.621 39.9085 32.8792C40.0363 33.4991 40.3484 34.0656 40.8038 34.504C41.2591 34.9424 41.8363 35.2322 42.4592 35.3351C42.6981 35.3871 42.7769 35.4706 42.7702 35.7146C42.7521 36.4715 42.7702 37.2306 42.7476 37.9875C42.6665 40.0864 40.945 42.0542 38.8607 42.2689C37.5335 42.4044 36.186 42.3457 34.8475 42.3547C34.7439 42.3547 34.5974 42.2124 34.5433 42.1017C33.944 40.8387 32.966 40.1112 31.5667 40.0525C30.2395 39.996 28.9078 39.9892 27.5829 40.0525C26.6906 40.0988 25.8523 40.4946 25.2483 41.1546C24.6443 41.8147 24.3231 42.6863 24.3539 43.5815C24.3709 44.4812 24.7373 45.3388 25.3753 45.9717C26.0133 46.6046 26.8724 46.9629 27.7699 46.9704C28.9957 46.993 30.2215 47.0021 31.4473 46.9704C32.8398 46.9298 33.8583 46.2452 34.4847 45.0049C34.5251 44.8906 34.6025 44.7933 34.7047 44.7285C34.8069 44.6638 34.9278 44.6354 35.0481 44.6479C36.3415 44.6479 37.6439 44.7021 38.9283 44.5756C42.3285 44.2435 44.9784 41.3041 45.0483 37.8836C45.064 37.0228 45.0483 36.162 45.0483 35.3012C45.0373 35.2062 45.0568 35.1102 45.1037 35.027C45.1507 34.9437 45.2228 34.8776 45.3097 34.8381C47.0785 33.8575 47.964 32.3393 47.9888 30.3195C48.0001 29.4361 47.9888 28.5504 47.9888 27.6671C47.9911 26.7408 48.0159 25.8099 47.9866 24.8814ZM5.87448 23.2298V27.6716C5.87448 29.0723 5.84519 30.4731 5.88574 31.8716C5.91954 33.0012 5.25257 33.2588 4.36026 33.0374C3.79116 32.9071 3.28209 32.5892 2.91445 32.1345C2.5468 31.6799 2.34182 31.1148 2.33228 30.5296C2.30524 28.6242 2.30524 26.7197 2.33228 24.8158C2.34579 24.1496 2.61108 23.5133 3.07454 23.0356C3.538 22.5579 4.16505 22.2744 4.82894 22.2425C5.50493 22.2244 5.85645 22.5588 5.87448 23.2298ZM31.2941 44.6931C30.733 44.6931 30.1674 44.6931 29.6108 44.6931C29.0543 44.6931 28.4684 44.6931 27.8961 44.6931C27.1547 44.6931 26.6545 44.2073 26.6455 43.5182C26.6365 42.8292 27.139 42.3615 27.8645 42.3502C29.0182 42.3336 30.1734 42.3336 31.3301 42.3502C31.4909 42.34 31.652 42.3642 31.8027 42.421C31.9535 42.4778 32.0906 42.566 32.2049 42.6797C32.3192 42.7935 32.4082 42.9303 32.466 43.0811C32.5238 43.2318 32.549 43.3931 32.5401 43.5544C32.5244 44.2164 32.0286 44.6727 31.2941 44.6818V44.6931ZM45.6882 30.5047C45.6837 31.1786 45.4211 31.8249 44.9547 32.3101C44.4884 32.7954 43.854 33.0824 43.1825 33.1119C42.5201 33.1345 42.1483 32.7956 42.1437 32.1224C42.1437 30.6425 42.1437 29.1627 42.1437 27.6829C42.1437 26.203 42.1437 24.791 42.1437 23.345C42.1437 22.543 42.4975 22.2154 43.2884 22.2583C43.934 22.3149 44.536 22.6083 44.9793 23.0823C45.4225 23.5563 45.6757 24.1776 45.6905 24.8271C45.719 26.7114 45.7183 28.6001 45.6882 30.4934V30.5047Z" fill="#062C69"/>
<path d="M45.688 30.4935C45.6835 31.1674 45.4209 31.8137 44.9545 32.2989C44.4882 32.7842 43.8538 33.0712 43.1823 33.1007C42.5199 33.1233 42.1481 32.7844 42.1436 32.1112C42.1436 30.6313 42.1436 29.1515 42.1436 27.6717C42.1436 26.1918 42.1436 24.7798 42.1436 23.3338C42.1436 22.5318 42.4973 22.2042 43.2882 22.2471C43.9338 22.3037 44.5359 22.5971 44.9791 23.0711C45.4223 23.5451 45.6755 24.1664 45.6903 24.8159C45.7188 26.7077 45.7181 28.6002 45.688 30.4935Z" fill="#062C69"/>
<path d="M5.88576 31.8717C5.91956 33.0014 5.25258 33.2589 4.36027 33.0375C3.79118 32.9072 3.28211 32.5893 2.91446 32.1347C2.54682 31.68 2.34183 31.1149 2.33229 30.5297C2.30525 28.6244 2.30525 26.7198 2.33229 24.816C2.3458 24.1497 2.6111 23.5134 3.07455 23.0357C3.53801 22.558 4.16506 22.2746 4.82896 22.2426C5.50495 22.2246 5.85196 22.5589 5.86998 23.2299V27.6717C5.87674 29.0725 5.8452 30.4732 5.88576 31.8717Z" fill="#062C69"/>
</g>
<defs>
<clipPath id="clip0_1_410">
<rect width="48" height="47" fill="white"/>
</clipPath>
</defs>
</svg>
