<svg width="48" height="43" viewBox="0 0 48 43" fill="none" xmlns="http://www.w3.org/2000/svg">
<g clip-path="url(#clip0_1_380)">
<path d="M47.9474 2.50315C47.8574 2.3831 47.7396 2.2871 47.6043 2.22355C47.469 2.16 47.3202 2.13083 47.1711 2.13861C45.5276 2.45206 43.8271 2.15604 42.3834 1.30519C41.2654 0.67021 40.0455 0.23787 38.7791 0.0278608C38.1326 -0.0809106 37.7926 0.183668 37.7576 0.840707C37.7488 1.00092 37.7576 1.16261 37.7576 1.3243V24.0663C37.2585 24.1266 37.2585 24.1266 37.0922 23.7239C36.6807 22.7361 35.9452 22.401 34.9384 22.7655C34.4524 22.9404 33.9782 23.1477 33.4879 23.3035C32.7583 23.5372 32.1322 23.8679 31.9571 24.7895C30.9955 24.5705 30.0733 24.3912 29.1671 24.1457C27.5327 23.7048 25.9086 23.6033 24.2743 24.131C24.1401 24.1757 23.9958 24.1788 23.8599 24.1398C22.0956 23.5519 20.3577 23.7459 18.6066 24.228C17.8084 24.4485 16.9883 24.594 16.1449 24.7822C15.98 23.9267 15.4342 23.5739 14.7513 23.3476C14.2275 23.1756 13.7182 22.9639 13.1987 22.7758C12.1626 22.401 11.4301 22.7185 11.0099 23.7518C10.8887 24.0458 10.7501 24.206 10.3401 24.0678V1.30078C10.3401 1.13909 10.3474 0.977405 10.3401 0.817188C10.3021 0.191017 9.95775 -0.0794434 9.3507 0.0205087C8.01761 0.255415 6.73436 0.71877 5.5567 1.39044C4.16011 2.17819 2.53249 2.44468 0.960116 2.14302C0.712046 2.09893 0.345782 2.28119 0.151704 2.47669C-0.103662 2.73686 -0.0117342 3.11756 0.256765 3.34245C0.827325 3.81722 1.37599 4.40518 2.04286 4.66534C3.22594 5.09662 4.44349 5.42512 5.68219 5.64723C6.71971 5.85007 7.78933 5.88535 8.84143 5.99412V24.1296H8.22563C6.99696 24.1296 5.76683 24.1296 4.53816 24.1296C3.91361 24.1296 3.66262 24.3883 3.66262 25.0115C3.65484 27.5044 3.65484 29.9978 3.66262 32.4917C3.66262 33.1399 3.93257 33.4031 4.57901 33.4104C5.36262 33.4207 6.14623 33.4104 6.92983 33.4104C7.45516 33.4104 8.00383 33.3119 8.3161 33.9219C8.40554 34.0354 8.52885 34.1168 8.66779 34.1542C9.4295 34.4481 10.1883 34.7656 10.9661 35.017C11.7438 35.2683 12.4253 34.9435 12.8047 34.2203L12.9871 33.8822C13.8626 34.3585 14.7469 34.795 15.5845 35.3007C16.1192 35.6133 16.6137 35.9909 17.0569 36.4251C18.9685 38.3551 20.8363 40.3292 22.7479 42.265C23.9839 43.5203 25.7904 43.0837 26.396 41.4242C26.4291 41.3446 26.4788 41.2731 26.5418 41.2145C26.6047 41.1559 26.6794 41.1117 26.7608 41.0847C27.1582 41.0178 27.5297 40.8421 27.8346 40.5769C28.1396 40.3117 28.3663 39.9672 28.49 39.581C28.5275 39.4936 28.5829 39.4152 28.6525 39.3508C28.7222 39.2865 28.8045 39.2377 28.8942 39.2076C29.7698 38.996 30.3534 38.4977 30.6205 37.626C30.6536 37.5523 30.7024 37.4868 30.7634 37.4343C30.8244 37.3817 30.8962 37.3433 30.9736 37.3218C31.9819 37.1189 32.5613 36.5148 32.767 35.5079C32.7959 35.3224 32.8921 35.1543 33.037 35.0361C33.7214 34.6319 34.4291 34.2674 35.1266 33.8881C35.8562 35.1463 36.3596 35.3271 37.6875 34.8318C38.1866 34.6451 38.6988 34.4849 39.1847 34.2644C39.4839 34.1292 39.7363 33.8911 40.0209 33.7176C40.2149 33.5985 40.4251 33.4325 40.6323 33.4236C41.5939 33.3913 42.5556 33.4148 43.5172 33.4075C44.1972 33.4075 44.4555 33.1414 44.4628 32.4609C44.4715 31.7259 44.4628 30.991 44.4628 30.256C44.4628 28.5333 44.4628 26.8106 44.4628 25.0894C44.4628 24.3633 44.2205 24.1281 43.4997 24.1193C43.0006 24.1193 42.5016 24.1193 42.004 24.1193H39.2504V5.97501C39.624 5.93973 39.98 5.92356 40.3273 5.87212C41.769 5.66192 43.2224 5.50318 44.6466 5.20479C45.8811 4.94756 47.015 4.39048 47.8219 3.36009C47.9824 3.1543 48.0583 2.71334 47.9474 2.50315ZM3.64802 3.75255L8.85602 1.56536V4.49337C7.04366 4.33462 5.25463 4.23908 3.64656 3.75255H3.64802ZM8.14246 31.5128C8.02572 31.8347 7.88272 31.9538 7.53834 31.9449C6.75911 31.9185 5.97696 31.9376 5.15979 31.9376V25.6009H10.2846C10.2321 25.7802 10.1971 25.9316 10.1387 26.0757C9.47328 27.8881 8.79328 29.6945 8.141 31.5128H8.14246ZM11.4695 33.6588L9.20624 32.8195L12.4428 24.0546L14.6959 24.9086L11.4695 33.6588ZM31.1473 35.6417C30.8437 35.9739 30.4862 35.9665 30.155 35.6682C29.8237 35.3698 29.4546 35.3051 29.1058 35.6196C28.757 35.9342 28.8052 36.2767 29.0474 36.6339C29.2897 36.991 29.2867 37.3203 28.9584 37.5952C28.6564 37.8495 28.3295 37.8054 28.0406 37.5452C27.6976 37.2365 27.3314 37.188 26.9885 37.504C26.6455 37.8201 26.6966 38.1699 26.9432 38.5227C27.1665 38.846 27.1738 39.1753 26.8834 39.4458C26.593 39.7162 26.2311 39.6971 25.9247 39.4208C25.5788 39.1062 25.214 39.068 24.8755 39.384C24.572 39.6692 24.5836 40.0278 24.8142 40.3615C25.0593 40.7246 25.0929 41.0788 24.731 41.361C24.3691 41.6432 24.0102 41.508 23.6979 41.189C21.7513 39.1679 19.809 37.141 17.8376 35.1449C17.4153 34.7397 16.943 34.3909 16.4324 34.1071C15.4678 33.5412 14.4711 33.0297 13.4599 32.48C14.2041 30.4662 14.9308 28.4878 15.6706 26.5152C15.6973 26.4522 15.7372 26.3958 15.7876 26.3499C15.838 26.304 15.8976 26.2696 15.9625 26.2491C17.4918 25.9243 19.0269 25.5877 20.5605 25.3187C21.1092 25.2232 21.6871 25.3025 22.3598 25.3025C22.192 25.4907 22.0767 25.6318 21.9497 25.7611C20.4774 27.2457 18.9962 28.7229 17.5326 30.2163C17.1997 30.5339 16.9761 30.9503 16.8944 31.4048C16.8128 31.8593 16.8774 32.3281 17.0788 32.7431C17.4947 33.625 18.344 34.1762 19.2677 34.066C19.6881 34.0063 20.0908 33.8559 20.4482 33.625C21.5616 32.9195 22.637 32.1551 23.7475 31.4378C23.9514 31.3153 24.1932 31.2734 24.426 31.3202C25.6445 31.6407 26.8673 31.7994 28.1267 31.6539C28.218 31.6532 28.3086 31.6713 28.3929 31.7069C28.4772 31.7425 28.5534 31.795 28.617 31.8611C29.456 32.7886 30.2747 33.7353 31.0977 34.6774C31.3559 34.9817 31.4362 35.3213 31.1458 35.6417H31.1473ZM32.2548 33.7808C31.3107 32.7093 30.368 31.6627 29.4575 30.5882C29.3205 30.4036 29.1334 30.2629 28.9186 30.1834C28.7039 30.1038 28.4709 30.0887 28.2478 30.1399C26.9918 30.3501 25.7032 30.2285 24.5078 29.7871C24.3029 29.7035 24.0798 29.6759 23.8609 29.7071C23.642 29.7383 23.4353 29.8273 23.2616 29.965C22.0942 30.7808 20.8976 31.5642 19.7113 32.355C19.2093 32.6902 18.824 32.674 18.522 32.3183C18.1907 31.9273 18.2301 31.5672 18.7 31.1012C20.3606 29.4256 22.011 27.7381 23.6921 26.083C24.3662 25.4186 25.2972 25.254 26.1727 25.2761C27.2292 25.3011 28.2828 25.5215 29.3305 25.6935C30.2411 25.8405 31.1458 26.0375 32.0476 26.2344C32.1281 26.2501 32.2044 26.2827 32.2715 26.3301C32.3386 26.3774 32.3951 26.4385 32.4372 26.5093C33.1829 28.4804 33.9081 30.4603 34.6523 32.477L32.2548 33.7808ZM36.6442 33.6662L33.4018 24.9071L35.6592 24.0619C36.739 26.9841 37.8072 29.8768 38.8943 32.8151L36.6442 33.6662ZM42.9466 25.6097V31.9302C42.0594 31.9302 41.1591 31.9302 40.2602 31.9185C40.1814 31.9185 40.0719 31.7715 40.034 31.6759C39.3024 29.7161 38.5767 27.7538 37.8568 25.7891C37.8486 25.7296 37.8486 25.6692 37.8568 25.6097H42.9466ZM39.2533 4.48749V1.56536L44.4453 3.74667C42.8401 4.25525 41.0569 4.32433 39.2519 4.48749H39.2533Z" fill="#062C69"/>
<path d="M38.9002 32.8152L36.6486 33.6662L33.4019 24.9072L35.6593 24.062C36.7391 26.9841 37.8073 29.8769 38.9002 32.8152Z" fill="#062C69"/>
<path d="M14.6959 24.9102L11.4666 33.6589L9.20337 32.8196L12.4429 24.0547L14.6959 24.9102Z" fill="#062C69"/>
<path d="M20.9764 11.5872L20.7196 12.0987C20.6028 12.3339 20.4861 12.5676 20.3708 12.8028C20.334 12.8902 20.2711 12.9639 20.1909 13.0137C20.1106 13.0635 20.0169 13.0869 19.9228 13.0806C18.4753 13.0806 17.0277 13.0806 15.5801 13.0806C15.4256 13.0744 15.2734 13.0405 15.1307 12.9806C14.7907 12.8439 14.7207 12.5396 14.7061 12.2133C14.7003 11.8903 14.7777 11.5712 14.9308 11.2873C15.3423 10.4563 15.7557 9.62634 16.1711 8.79733C16.1979 8.75887 16.2084 8.71133 16.2005 8.66507C16.1926 8.61881 16.1668 8.57759 16.1288 8.55038C15.7013 8.12852 15.2795 7.70226 14.8578 7.27452C14.7843 7.21816 14.732 7.13819 14.7097 7.04785C14.6874 6.9575 14.6964 6.86219 14.7353 6.7777C14.7604 6.71756 14.8004 6.66491 14.8515 6.62477C14.9026 6.58463 14.9631 6.55834 15.0271 6.5484C15.0901 6.53663 15.1541 6.53073 15.2183 6.53076H20.2599C20.5955 6.53076 20.6977 6.59837 20.8202 6.90999L22.761 11.6033C22.8953 11.9267 22.7829 12.2133 22.4925 12.2486C22.38 12.2559 22.2676 12.2325 22.1671 12.181C21.8155 12.0149 21.4711 11.8356 21.1252 11.6607C21.0785 11.6327 21.0333 11.6136 20.9764 11.5872Z" fill="#062C69"/>
<path d="M30.1989 13.8962H32.433C32.4874 13.8933 32.542 13.8933 32.5964 13.8962C32.9379 13.9359 33.1042 14.2622 32.9072 14.5444C32.1572 15.6263 31.4115 16.711 30.6338 17.7782C30.4347 18.0478 30.1836 18.274 29.8954 18.4433C29.6073 18.6125 29.2881 18.7213 28.9571 18.763C28.5992 18.8045 28.2389 18.8216 27.8787 18.8144C27.7328 18.8144 27.6992 18.86 27.7036 18.9967C27.7124 19.3142 27.7036 19.6317 27.7036 19.9492C27.7064 20.0317 27.6955 20.1142 27.6715 20.1932C27.6517 20.2523 27.6178 20.3056 27.573 20.3486C27.5281 20.3917 27.4735 20.4231 27.414 20.4401C27.3544 20.4572 27.2916 20.4594 27.231 20.4466C27.1703 20.4338 27.1137 20.4064 27.0659 20.3666C26.9094 20.2244 26.7631 20.0712 26.6282 19.908C25.6904 18.8389 24.7516 17.7713 23.8118 16.7051C23.5827 16.445 23.5857 16.2642 23.8118 16.0025C24.8528 14.8266 25.8942 13.6507 26.9361 12.4748C27.013 12.3847 27.1144 12.3193 27.2279 12.2867C27.495 12.2264 27.6949 12.4131 27.7022 12.7129C27.7095 13.0437 27.7022 13.3744 27.7022 13.7066C27.7022 13.9036 27.7022 13.9036 27.8948 13.9036L30.1989 13.8962Z" fill="#062C69"/>
<path d="M25.8839 0.793665H27.171C27.5268 0.781476 27.8796 0.863572 28.194 1.03175C28.5085 1.19993 28.7736 1.44829 28.9629 1.75203C29.246 2.17535 29.5291 2.59868 29.8063 3.02495C29.8603 3.10873 29.9056 3.12196 29.9931 3.07639C30.3706 2.88041 30.75 2.68883 31.1313 2.50167C31.4057 2.36644 31.6742 2.45316 31.7413 2.71921C31.7635 2.83945 31.7503 2.96362 31.7033 3.07639C31.4626 3.68199 31.2101 4.28317 30.962 4.88435L29.7451 7.82412C29.621 8.1181 29.4751 8.19894 29.1526 8.13868L25.058 7.39198C24.969 7.37581 24.8785 7.35964 24.7895 7.33906C24.7099 7.32494 24.6364 7.28694 24.5786 7.23002C24.5208 7.17311 24.4814 7.09994 24.4655 7.02009C24.4482 6.9429 24.454 6.86225 24.4824 6.78842C24.5107 6.7146 24.5602 6.65095 24.6246 6.60559C24.8712 6.40127 25.1222 6.20284 25.3717 6.00146C25.6636 5.76922 25.9467 5.5311 26.2473 5.30621C26.3509 5.22831 26.3421 5.17098 26.2808 5.07103C25.5357 3.88826 24.7934 2.70207 24.054 1.51244C23.9911 1.41747 23.952 1.30851 23.9402 1.19494C23.9395 1.14067 23.9499 1.08683 23.9709 1.03681C23.9918 0.986793 24.0227 0.941666 24.0618 0.904265C24.1008 0.866863 24.1471 0.837993 24.1978 0.819466C24.2484 0.80094 24.3023 0.793155 24.3561 0.796603C24.861 0.792193 25.3717 0.793665 25.8839 0.793665Z" fill="#062C69"/>
<path d="M17.9558 4.42584C17.9787 4.34932 18.0116 4.27618 18.0535 4.2083C18.6576 3.39398 19.2516 2.57378 19.879 1.77858C20.1001 1.49412 20.3803 1.26184 20.6999 1.09806C21.0196 0.934277 21.3709 0.842954 21.7293 0.830501C21.9544 0.822583 22.1784 0.866378 22.3842 0.958568C22.59 1.05076 22.7722 1.18893 22.9171 1.3626C23.1447 1.63205 23.3543 1.91635 23.5446 2.21366C23.9824 2.84865 24.4202 3.48658 24.8477 4.12451C25.036 4.40085 25.036 4.52138 24.839 4.79772C24.2932 5.5699 23.747 6.34061 23.2002 7.10985C23.0237 7.35679 22.8369 7.40382 22.5728 7.25683C21.1135 6.45722 19.6543 5.65613 18.1951 4.85357C18.1183 4.8133 18.0548 4.75144 18.0124 4.6755C17.9699 4.59956 17.9502 4.51282 17.9558 4.42584Z" fill="#062C69"/>
<path d="M19.3757 13.8964H22.2796C22.3525 13.8961 22.4253 13.9025 22.497 13.9155C22.5792 13.927 22.6551 13.966 22.7125 14.0263C22.77 14.0866 22.8056 14.1645 22.8137 14.2477C22.8232 14.3208 22.8276 14.3945 22.8268 14.4682C22.8268 15.7323 22.8268 16.9974 22.8268 18.2634C22.827 18.3323 22.8221 18.4011 22.8122 18.4692C22.8007 18.5539 22.7614 18.6323 22.7006 18.692C22.6398 18.7516 22.561 18.7891 22.4766 18.7985C22.4448 18.8041 22.4126 18.8075 22.3803 18.8087C21.7134 18.8087 21.0465 18.819 20.3811 18.8014C19.3932 18.7764 18.63 18.3252 18.0653 17.5153C17.4028 16.5569 16.7428 15.5966 16.0852 14.6343C16.0474 14.5827 16.0146 14.5276 15.9874 14.4697C15.9624 14.4152 15.95 14.3558 15.951 14.2958C15.952 14.2359 15.9664 14.1769 15.9932 14.1233C16.02 14.0698 16.0585 14.023 16.1057 13.9865C16.153 13.95 16.2078 13.9247 16.2661 13.9126C16.3383 13.8998 16.4117 13.8944 16.485 13.8964H19.3757Z" fill="#062C69"/>
<path d="M34.1912 11.9884L34.0598 12.0163C34.2058 12.0589 34.2335 12.1236 34.197 12.297C34.1599 12.5246 34.0406 12.7304 33.862 12.8748C33.6834 13.0191 33.4582 13.0919 33.2295 13.079H29.6807C29.6006 13.0835 29.5208 13.0657 29.45 13.0276C29.3792 12.9895 29.3202 12.9326 29.2794 12.8629C28.7833 12.0648 28.2842 11.2667 27.7924 10.4656C27.6319 10.2025 27.7063 9.97315 27.9924 9.81294C28.7453 9.38961 29.4993 8.96726 30.2542 8.5459C30.6525 8.32394 31.0509 8.09759 31.4507 7.87857C31.5361 7.82562 31.6299 7.78783 31.728 7.76686C31.8128 7.75479 31.8991 7.77076 31.9741 7.81238C32.0491 7.85399 32.1087 7.919 32.1439 7.99763C32.764 9.1074 33.3857 10.2157 33.9927 11.3328C34.0807 11.544 34.1472 11.7636 34.1912 11.9884Z" fill="#062C69"/>
</g>
<defs>
<clipPath id="clip0_1_380">
<rect width="48" height="43" fill="white"/>
</clipPath>
</defs>
</svg>
