<svg width="48" height="46" viewBox="0 0 48 46" fill="none" xmlns="http://www.w3.org/2000/svg">
<g clip-path="url(#clip0_1_287)">
<path d="M47.9688 24.1048C47.9688 23.4406 47.5272 23.0543 46.8427 23.1194C45.6568 23.232 44.462 23.2196 43.2788 23.0825C43.4613 21.3627 43.3989 19.6262 43.0933 17.9234C42.4773 14.2879 41.0597 10.978 38.6771 8.12825C33.2694 1.70596 26.3315 -0.952812 17.9319 0.301694C13.7894 0.920266 10.1703 2.73257 7.09664 5.52374C2.44194 9.75173 0.116792 15.0237 0.0108025 20.0222C-0.0090705 23.7814 0.512044 26.5704 1.3975 28.8146C2.85664 32.5909 5.37478 35.8833 8.65999 38.3102C11.4903 40.4311 14.8162 41.8213 18.3337 42.3537C21.5133 42.8364 24.7616 42.6327 27.8529 41.7568C29.3739 43.1459 31.1155 44.2815 33.0089 45.1188C33.3445 45.2736 33.6853 45.4183 34.0312 45.5529C35.4334 46.115 35.5261 46.1346 36.7362 45.6506L36.957 45.5659C40.3023 44.2246 43.1839 42.2691 45.297 39.339C46.8427 37.1837 47.8606 34.7984 47.96 32.1484C48.0594 29.4983 47.9688 26.7874 47.9688 24.1048ZM26.1858 40.5327C25.9915 40.5739 25.795 40.613 25.6006 40.6477C25.4063 40.6825 25.2098 40.7172 25.0155 40.7498L24.724 40.7932L24.3244 40.8474L23.9225 40.8952L23.5338 40.9321C23.0348 40.9784 22.5365 41.0051 22.039 41.0124H21.668C20.2349 41.0131 18.806 40.861 17.4063 40.5588C17.0552 40.4828 16.7042 40.3981 16.3531 40.3026C15.2801 40.01 14.2318 39.6363 13.2175 39.1849C13.244 39.131 13.2774 39.0807 13.3169 39.0351C14.761 37.9 15.0481 36.4306 14.6153 34.742C14.528 34.3913 14.4082 34.0491 14.2576 33.7197C14.0954 33.4053 14.03 33.0513 14.0692 32.701C14.1084 32.3506 14.2506 32.0191 14.4784 31.7468C14.92 31.1717 15.3947 30.6182 15.8673 30.0626C16.9868 28.7473 17.7596 27.2888 17.6161 25.522C17.5334 24.7937 17.3856 24.074 17.1745 23.3712C16.9538 22.6817 16.8567 21.9598 16.8874 21.2376C17.0354 19.4622 18.2807 19.0281 19.6895 19.2712C20.4204 19.3949 21.1447 19.5317 21.8778 19.3711C23.4234 19.0325 24.225 17.9755 24.5982 16.5495C24.8808 15.4643 24.6489 14.416 24.225 13.4089C23.5935 11.9135 22.7654 10.5396 21.5024 9.4674C20.643 8.69398 19.5313 8.2469 18.3669 8.20639C18.0489 8.20639 17.7309 8.16515 17.413 8.16081C16.4105 8.14779 15.6928 7.68114 15.4124 6.75437C15.0503 5.5563 14.7963 4.32784 14.496 3.11457C14.4453 2.89753 14.5822 2.85195 14.7433 2.78901C16.2447 2.19139 17.823 1.80134 19.4334 1.63C23.2843 1.19369 27.1808 1.87818 30.6396 3.59857C30.7462 3.63729 30.8364 3.71017 30.8957 3.80547C30.955 3.90076 30.9799 4.01291 30.9664 4.12382C30.9421 5.60839 30.8648 7.09079 30.4232 8.5211C30.2428 9.01958 30.0266 9.5048 29.7762 9.97311C29.3566 10.8608 29.1336 11.7702 29.4626 12.7361C29.8358 13.8213 30.6727 14.4616 31.7061 14.8804C32.5493 15.2123 33.4476 15.3882 34.3558 15.3992C36.3144 15.4556 38.2487 15.219 40.1764 14.9239C40.4878 14.8761 40.6313 14.9347 40.7306 15.2472C41.4009 17.3092 41.7282 19.4639 41.7 21.6283V21.8258C41.7 21.9126 41.7 22.0016 41.689 22.0884C41.6779 22.3228 41.6603 22.5572 41.6404 22.7917C39.6531 22.3315 37.8424 21.5219 36.4027 20.0287C36.2015 19.7777 35.9249 19.5954 35.6122 19.5078C35.2921 19.4514 34.9829 19.6315 34.6009 20.0482C34.1056 20.546 33.5511 20.9832 32.9493 21.3505C32.1722 21.8546 31.3251 22.2457 30.4342 22.5117C28.8141 22.9755 27.1334 23.2022 25.4461 23.1845C25.0045 23.1845 24.5628 23.1411 24.1212 23.1129C23.4455 23.0716 23.0172 23.4536 23.0172 24.1221C23.0172 24.9751 23.0172 25.8281 23.0172 26.6832V28.9578C23.0172 29.2508 23.0172 31.6492 23.0172 31.7143C23.0966 34.4512 24.0263 36.9059 25.583 39.1458C25.896 39.5964 26.232 40.031 26.5899 40.4481L26.1858 40.5327ZM44.1135 37.7893C42.252 40.6586 39.5537 42.5121 36.4226 43.8383C36.1501 43.9748 35.8497 44.0492 35.5439 44.056C35.2381 44.0628 34.9346 44.0017 34.6561 43.8773C31.5913 42.5881 28.9261 40.804 27.0337 38.0476C25.6227 35.9922 24.8256 33.7371 24.8411 31.2238C24.8587 29.3268 24.8411 27.432 24.8411 25.5329V25.0467C25.859 24.9925 26.8107 24.9794 27.7536 24.8839C30.4033 24.6191 32.8322 23.8117 34.952 22.1861C35.504 21.752 35.5085 21.7694 36.0384 22.1861C37.8469 23.5844 40.0073 24.4747 42.2896 24.7624C43.4444 24.9252 44.6236 24.923 45.7894 24.9968C45.8844 24.9968 45.9793 25.012 46.1207 25.0185V25.4678C46.1207 27.3517 46.0875 29.2378 46.1207 31.1109C46.2024 33.5656 45.4229 35.7643 44.1113 37.7893H44.1135Z" fill="#062C69"/>
<path d="M41.592 29.4027C41.6547 29.4674 41.7031 29.5441 41.7344 29.628C41.7656 29.7119 41.7789 29.8012 41.7735 29.8903C41.7682 29.9795 41.7442 30.0666 41.7031 30.1463C41.662 30.2259 41.6046 30.2964 41.5346 30.3534L41.2961 30.5379C41.1371 30.6549 40.9845 30.7803 40.839 30.9134L40.7618 30.9915L40.563 31.1825L39.8807 31.851L39.3309 32.3893C38.7803 32.9275 38.2313 33.4665 37.6837 34.0062L36.5796 35.0914L35.0096 36.6455L34.5481 37.1012C34.4454 37.2181 34.3196 37.3133 34.1785 37.3812C34.0373 37.4491 33.8836 37.4882 33.7267 37.4963C33.6771 37.4962 33.6276 37.4919 33.5788 37.4832C33.4912 37.4687 33.4058 37.4431 33.3248 37.4073C33.2921 37.3926 33.2604 37.376 33.2299 37.3574L33.1879 37.3313H33.1173L32.7618 36.9537L32.6977 36.8885L32.3157 36.5065L31.9116 36.1028L31.5606 35.7599L31.3662 35.5668L30.8208 35.035L30.4543 34.6725L29.7212 33.9541L29.571 33.7979C29.5423 33.7696 29.5158 33.7414 29.4893 33.711L29.4695 33.6893L29.4187 33.6351C29.3595 33.5724 29.3135 33.4988 29.2833 33.4186C29.253 33.3385 29.2391 33.2532 29.2424 33.1678C29.2457 33.0823 29.2661 32.9983 29.3024 32.9206C29.3387 32.8429 29.3902 32.773 29.454 32.7148L29.5578 32.6171L29.6196 32.5585L30.0259 32.1744L30.536 31.6925L30.6 31.6296C30.7241 31.5083 30.892 31.4403 31.067 31.4403C31.242 31.4403 31.4099 31.5083 31.5341 31.6296L31.6378 31.7273L31.6643 31.7533L31.7593 31.8445L31.852 31.9335L32.0044 32.0789L32.0287 32.1006C32.0772 32.1527 32.1302 32.2026 32.181 32.2547C32.3886 32.4565 32.5917 32.6584 32.7949 32.8602L33.4043 33.4593C33.5169 33.5678 33.6605 33.6763 33.7422 33.6763H33.7598C33.8069 33.6594 33.8509 33.6353 33.8901 33.6047L34.0138 33.5027L34.0447 33.4745C35.1576 32.3849 36.269 31.2939 37.3789 30.2015L39.1035 28.5085C39.1808 28.4304 39.2602 28.3566 39.3419 28.2806L39.4634 28.1656C39.5261 28.106 39.6001 28.0592 39.6813 28.0278C39.7624 27.9964 39.8491 27.9811 39.9363 27.9827C40.0235 27.9843 40.1095 28.0029 40.1894 28.0372C40.2693 28.0716 40.3415 28.1211 40.4018 28.183L40.6845 28.4738L40.7375 28.5259L40.7507 28.5411C40.8523 28.6431 40.9539 28.7473 41.0577 28.858L41.592 29.4027Z" fill="#062C69"/>
</g>
<defs>
<clipPath id="clip0_1_287">
<rect width="48" height="46" fill="white"/>
</clipPath>
</defs>
</svg>
