<svg width="48" height="40" viewBox="0 0 48 40" fill="none" xmlns="http://www.w3.org/2000/svg">
<g clip-path="url(#clip0_1_310)">
<path d="M14.0005 34.4966L15.0047 33.39C15.5614 33.8476 17.5313 35.2588 19.5825 34.7806C20.4183 34.5569 20.6944 34.192 20.786 33.3385C20.9558 31.7699 21.071 30.1909 21.3427 28.64C21.5036 27.8307 21.8034 27.0551 22.2287 26.3473C23.2284 24.6272 25.1732 24.1857 26.8316 25.2967C27.4385 25.7028 27.9583 26.2429 28.4943 26.7461C28.8741 27.1044 29.2349 27.4821 29.5753 27.8777C30.29 28.6973 31.1465 28.8092 32.1196 28.4413C32.5065 28.2942 32.8963 28.1548 33.2891 28.0234C34.546 27.6694 35.8916 27.815 37.0429 28.4295C38.6481 29.4684 40.1307 29.2757 41.6207 28.1426C42.6239 27.3703 43.793 26.8399 45.0363 26.5931C45.2105 26.5592 45.404 26.2826 45.4704 26.081C47.554 19.6799 46.5499 13.7807 42.4432 8.45233C40.333 5.71239 37.5701 3.79943 34.3214 2.59426C34.1737 2.53834 34.0172 2.48684 33.8621 2.44711C33.8066 2.4439 33.751 2.44836 33.6967 2.46035C33.7233 2.82234 33.7484 3.18581 33.7765 3.54927C33.9241 5.52845 32.9126 6.90284 31.3872 7.9638C30.5262 8.56564 29.5413 8.57889 28.5977 8.17422C27.7412 7.80782 26.9349 7.32222 26.0873 6.91755C25.6044 6.68505 25.1112 6.42901 24.5929 6.32159C23.3879 6.07291 22.3454 6.4246 21.5465 7.38402C21.1891 7.81076 20.8436 8.24927 20.5128 8.70838C19.2886 10.4139 17.6421 10.9833 15.6397 10.4742C14.634 10.2167 13.6565 9.85027 12.5563 9.49858C12.0464 10.3756 11.4995 11.3169 10.9157 12.3224C10.586 12.0865 10.274 11.8269 9.98245 11.5454C9.89385 11.4483 9.93373 11.1511 10.0135 10.9936C11.4249 8.16684 13.5022 5.72266 16.0679 3.87006C27.5286 -4.44543 43.7574 1.33171 47.3458 14.9961C50.2372 26.0074 43.1904 37.3631 31.9616 39.5792C25.3357 40.8917 19.4363 39.2157 14.3579 34.7482C14.2441 34.657 14.1248 34.573 14.0005 34.4966Z" fill="#062C69"/>
<path d="M0 32.6557C1.0204 32.4423 1.9197 32.2834 2.80572 32.0671C4.43747 31.6595 6.03525 31.1386 7.37461 30.0835C7.82265 29.719 8.20862 29.2847 8.51758 28.7974C8.67941 28.546 8.74125 28.2434 8.69099 27.9489C8.64074 27.6544 8.48201 27.3892 8.24587 27.2052C6.78246 26.0663 5.30429 24.9479 3.85565 23.7913C2.48675 22.6995 2.05261 21.0499 2.67429 19.3003C2.85593 19.4371 3.02279 19.5549 3.1808 19.6814C4.6575 20.8831 6.13911 22.0844 7.62565 23.2851C7.79788 23.4422 7.99827 23.5655 8.21633 23.6486C8.38214 23.7045 8.56307 23.6957 8.72259 23.6239C8.88212 23.552 9.00834 23.4226 9.07577 23.2616C9.26626 22.8702 9.14518 22.5258 8.81292 22.258C7.76644 21.4075 6.71847 20.557 5.66903 19.7064C4.67521 18.903 3.67697 18.1054 2.68315 17.302C1.03664 15.9776 0.79003 15.0064 1.61255 12.9507C1.79123 13.0846 1.95957 13.2024 2.11758 13.3304C3.93687 14.8019 5.75517 16.2734 7.57249 17.7449C7.66996 17.8229 7.76594 17.9053 7.86783 17.9774C8.27245 18.2643 8.70365 18.2379 8.97979 17.9112C9.25593 17.5845 9.22344 17.1063 8.8203 16.7722C7.87817 15.9923 6.92275 15.2272 5.97028 14.4576C4.76677 13.4849 3.59279 12.471 2.34646 11.5557C1.10013 10.6405 0.722102 9.52212 1.1784 8.07563C1.31426 7.65183 1.43387 7.22363 1.58597 6.71301C1.81338 6.88224 1.98172 7.00731 2.14268 7.12945C6.40442 10.5316 10.6647 13.9347 14.9235 17.3388C15.7253 17.9789 15.7977 18.026 16.6143 17.4491C17.9802 16.4868 19.3019 15.4611 20.6501 14.4723C21.2009 14.0691 21.7532 13.6629 22.3395 13.3171C23.3539 12.7168 24.4068 12.7536 25.4287 13.3068C25.9911 13.59 26.5373 13.9039 27.0649 14.2471C28.1488 15.0476 28.6656 14.9917 29.3597 14.384C30.2457 13.5364 31.1125 12.6731 31.9601 11.7941C32.1127 11.6261 32.2101 11.4156 32.2392 11.1908C32.3818 10.0383 32.9468 8.97895 33.8256 8.21627C34.7043 7.45359 35.8349 7.04137 37.0001 7.05881C37.6011 7.07059 37.7562 7.22804 37.765 7.83577C37.7733 8.76704 37.5052 9.67998 36.9945 10.4599C36.4837 11.2398 35.7531 11.852 34.8943 12.2194C34.4185 12.4078 33.9119 12.5076 33.3999 12.5137C33.1461 12.5226 32.9042 12.623 32.7191 12.7962C32.1506 13.3054 31.7061 13.8263 31.1568 14.3546C31.0387 14.4855 30.7581 14.6945 30.7832 14.7386C30.9855 14.7504 32.9421 14.7607 33.4826 14.7533C34.6876 14.7342 35.0139 14.565 35.6814 14.1235C37.4904 12.9287 39.9638 13.2715 41.4789 14.821C41.9219 15.2625 41.9145 15.4979 41.4656 15.9511C40.671 16.7531 39.6142 17.2444 38.4869 17.3359C37.3598 17.4275 36.237 17.1131 35.3226 16.45C35.1011 16.2896 34.7526 16.0218 34.4794 16.0085C33.4737 15.9717 31.969 15.9349 30.8482 15.9349C30.9958 16.1439 31.3178 16.6486 31.4152 16.7531C31.6796 17.0356 31.9572 17.3417 32.474 17.82C32.8683 18.1849 33.4043 18.1864 33.9256 18.2732C36.1761 18.6455 37.8344 20.7159 37.765 22.9952C37.7503 23.5 37.5214 23.6927 37.0341 23.7089C35.869 23.731 34.7364 23.3257 33.8516 22.5702C32.9668 21.8146 32.3914 20.7614 32.2348 19.6108C32.2038 19.365 32.2584 18.8824 32.0871 18.7029C31.2941 17.8744 30.7227 17.3049 29.909 16.4956C29.4306 16.0188 27.9775 15.6863 27.2229 16.3175C25.4139 17.5566 21.0754 22.3963 20.3164 23.1615C19.0698 24.411 18.0145 25.8365 17.1843 27.3921C15.9336 29.7303 14.4834 31.9347 12.5652 33.7932C11.3263 34.9939 9.96917 36.0196 8.22519 36.3919C7.1664 36.617 6.10909 36.5581 5.17582 36.0299C2.76437 35.0204 0.285002 32.9191 0 32.6557Z" fill="#062C69"/>
</g>
<defs>
<clipPath id="clip0_1_310">
<rect width="48" height="40" fill="white"/>
</clipPath>
</defs>
</svg>
