<svg width="48" height="43" viewBox="0 0 48 43" fill="none" xmlns="http://www.w3.org/2000/svg">
<g clip-path="url(#clip0_1_295)">
<path d="M47.9474 2.50321C47.8574 2.38316 47.7396 2.28716 47.6043 2.22361C47.469 2.16006 47.3202 2.13089 47.1711 2.13867C45.5276 2.45212 43.8271 2.1561 42.3834 1.30525C41.2654 0.670271 40.0455 0.237931 38.7791 0.0279219C38.1326 -0.0808496 37.7926 0.183729 37.7576 0.840768C37.7488 1.00099 37.7576 1.16267 37.7576 1.32436V24.0664C37.2585 24.1267 37.2585 24.1267 37.0922 23.7239C36.6807 22.7362 35.9452 22.401 34.9384 22.7656C34.4524 22.9405 33.9782 23.1477 33.4879 23.3035C32.7583 23.5373 32.1322 23.868 31.9571 24.7896C30.9955 24.5706 30.0733 24.3913 29.1671 24.1458C27.5327 23.7048 25.9086 23.6034 24.2743 24.1311C24.1401 24.1758 23.9958 24.1789 23.8599 24.1399C22.0956 23.552 20.3577 23.746 18.6066 24.2281C17.8084 24.4486 16.9883 24.5941 16.1449 24.7822C15.98 23.9268 15.4342 23.574 14.7513 23.3476C14.2275 23.1757 13.7182 22.964 13.1987 22.7759C12.1626 22.401 11.4301 22.7185 11.0099 23.7519C10.8887 24.0458 10.7501 24.2061 10.3401 24.0679V1.30084C10.3401 1.13916 10.3474 0.977467 10.3401 0.817249C10.3021 0.191078 9.95775 -0.0793824 9.3507 0.0205697C8.01761 0.255476 6.73436 0.718831 5.5567 1.3905C4.16011 2.17826 2.53249 2.44474 0.960116 2.14308C0.712046 2.09899 0.345782 2.28126 0.151704 2.47675C-0.103662 2.73692 -0.0117342 3.11762 0.256765 3.34251C0.827325 3.81728 1.37599 4.40524 2.04286 4.66541C3.22594 5.09669 4.44349 5.42518 5.68219 5.64729C6.71971 5.85013 7.78933 5.88541 8.84143 5.99418V24.1296H8.22563C6.99696 24.1296 5.76683 24.1296 4.53816 24.1296C3.91361 24.1296 3.66262 24.3883 3.66262 25.0115C3.65484 27.5045 3.65484 29.9979 3.66262 32.4918C3.66262 33.14 3.93257 33.4031 4.57901 33.4105C5.36262 33.4208 6.14623 33.4105 6.92983 33.4105C7.45516 33.4105 8.00383 33.312 8.3161 33.922C8.40554 34.0354 8.52885 34.1169 8.66779 34.1542C9.4295 34.4482 10.1883 34.7657 10.9661 35.0171C11.7438 35.2684 12.4253 34.9436 12.8047 34.2204L12.9871 33.8823C13.8626 34.3585 14.7469 34.7951 15.5845 35.3007C16.1192 35.6133 16.6137 35.991 17.0569 36.4252C18.9685 38.3552 20.8363 40.3292 22.7479 42.2651C23.9839 43.5203 25.7904 43.0838 26.396 41.4243C26.4291 41.3447 26.4788 41.2732 26.5418 41.2146C26.6047 41.156 26.6794 41.1117 26.7608 41.0847C27.1582 41.0178 27.5297 40.8422 27.8346 40.577C28.1396 40.3118 28.3663 39.9673 28.49 39.581C28.5275 39.4937 28.5829 39.4152 28.6525 39.3509C28.7222 39.2866 28.8045 39.2378 28.8942 39.2077C29.7698 38.996 30.3534 38.4977 30.6205 37.6261C30.6536 37.5524 30.7024 37.4869 30.7634 37.4343C30.8244 37.3817 30.8962 37.3433 30.9736 37.3218C31.9819 37.119 32.5613 36.5149 32.767 35.508C32.7959 35.3225 32.8921 35.1544 33.037 35.0362C33.7214 34.6319 34.4291 34.2674 35.1266 33.8882C35.8562 35.1464 36.3596 35.3272 37.6875 34.8318C38.1866 34.6452 38.6988 34.485 39.1847 34.2645C39.4839 34.1292 39.7363 33.8911 40.0209 33.7177C40.2149 33.5986 40.4251 33.4325 40.6323 33.4237C41.5939 33.3914 42.5556 33.4149 43.5172 33.4075C44.1972 33.4075 44.4555 33.1415 44.4628 32.4609C44.4715 31.726 44.4628 30.991 44.4628 30.2561C44.4628 28.5334 44.4628 26.8107 44.4628 25.0895C44.4628 24.3633 44.2205 24.1281 43.4997 24.1193C43.0006 24.1193 42.5016 24.1193 42.004 24.1193H39.2504V5.97507C39.624 5.9398 39.98 5.92363 40.3273 5.87218C41.769 5.66199 43.2224 5.50324 44.6466 5.20485C45.8811 4.94763 47.015 4.39054 47.8219 3.36015C47.9824 3.15436 48.0583 2.7134 47.9474 2.50321ZM3.64802 3.75261L8.85602 1.56542V4.49343C7.04366 4.33468 5.25463 4.23914 3.64656 3.75261H3.64802ZM8.14246 31.5128C8.02572 31.8347 7.88272 31.9538 7.53834 31.945C6.75911 31.9185 5.97696 31.9376 5.15979 31.9376V25.601H10.2846C10.2321 25.7803 10.1971 25.9317 10.1387 26.0757C9.47328 27.8881 8.79328 29.6946 8.141 31.5128H8.14246ZM11.4695 33.6589L9.20624 32.8196L12.4428 24.0547L14.6959 24.9087L11.4695 33.6589ZM31.1473 35.6418C30.8437 35.9739 30.4862 35.9666 30.155 35.6682C29.8237 35.3698 29.4546 35.3051 29.1058 35.6197C28.757 35.9343 28.8052 36.2767 29.0474 36.6339C29.2897 36.9911 29.2867 37.3204 28.9584 37.5952C28.6564 37.8495 28.3295 37.8054 28.0406 37.5453C27.6976 37.2366 27.3314 37.1881 26.9885 37.5041C26.6455 37.8201 26.6966 38.17 26.9432 38.5227C27.1665 38.8461 27.1738 39.1754 26.8834 39.4458C26.593 39.7163 26.2311 39.6972 25.9247 39.4208C25.5788 39.1063 25.214 39.0681 24.8755 39.3841C24.572 39.6692 24.5836 40.0279 24.8142 40.3616C25.0593 40.7246 25.0929 41.0789 24.731 41.3611C24.3691 41.6433 24.0102 41.5081 23.6979 41.1891C21.7513 39.168 19.809 37.141 17.8376 35.1449C17.4153 34.7398 16.943 34.391 16.4324 34.1072C15.4678 33.5413 14.4711 33.0298 13.4599 32.48C14.2041 30.4663 14.9308 28.4878 15.6706 26.5152C15.6973 26.4523 15.7372 26.3959 15.7876 26.3499C15.838 26.304 15.8976 26.2696 15.9625 26.2492C17.4918 25.9243 19.0269 25.5877 20.5605 25.3188C21.1092 25.2232 21.6871 25.3026 22.3598 25.3026C22.192 25.4907 22.0767 25.6318 21.9497 25.7612C20.4774 27.2458 18.9962 28.723 17.5326 30.2164C17.1997 30.534 16.9761 30.9503 16.8944 31.4048C16.8128 31.8593 16.8774 32.3282 17.0788 32.7431C17.4947 33.6251 18.344 34.1763 19.2677 34.066C19.6881 34.0064 20.0908 33.8559 20.4482 33.6251C21.5616 32.9195 22.637 32.1552 23.7475 31.4379C23.9514 31.3154 24.1932 31.2735 24.426 31.3203C25.6445 31.6407 26.8673 31.7995 28.1267 31.654C28.218 31.6533 28.3086 31.6713 28.3929 31.707C28.4772 31.7426 28.5534 31.7951 28.617 31.8612C29.456 32.7887 30.2747 33.7353 31.0977 34.6775C31.3559 34.9818 31.4362 35.3213 31.1458 35.6418H31.1473ZM32.2548 33.7809C31.3107 32.7093 30.368 31.6628 29.4575 30.5883C29.3205 30.4036 29.1334 30.263 28.9186 30.1834C28.7039 30.1038 28.4709 30.0887 28.2478 30.14C26.9918 30.3501 25.7032 30.2286 24.5078 29.7872C24.3029 29.7035 24.0798 29.6759 23.8609 29.7072C23.642 29.7384 23.4353 29.8274 23.2616 29.9651C22.0942 30.7808 20.8976 31.5643 19.7113 32.3551C19.2093 32.6902 18.824 32.674 18.522 32.3183C18.1907 31.9273 18.2301 31.5672 18.7 31.1013C20.3606 29.4256 22.011 27.7382 23.6921 26.0831C24.3662 25.4187 25.2972 25.2541 26.1727 25.2761C27.2292 25.3011 28.2828 25.5216 29.3305 25.6936C30.2411 25.8406 31.1458 26.0375 32.0476 26.2345C32.1281 26.2502 32.2044 26.2828 32.2715 26.3301C32.3386 26.3775 32.3951 26.4386 32.4372 26.5094C33.1829 28.4805 33.9081 30.4604 34.6523 32.4771L32.2548 33.7809ZM36.6442 33.6662L33.4018 24.9072L35.6592 24.062C36.739 26.9841 37.8072 29.8769 38.8943 32.8152L36.6442 33.6662ZM42.9466 25.6098V31.9303C42.0594 31.9303 41.1591 31.9303 40.2602 31.9185C40.1814 31.9185 40.0719 31.7715 40.034 31.676C39.3024 29.7162 38.5767 27.7539 37.8568 25.7891C37.8486 25.7296 37.8486 25.6693 37.8568 25.6098H42.9466ZM39.2533 4.48755V1.56542L44.4453 3.74673C42.8401 4.25531 41.0569 4.32439 39.2519 4.48755H39.2533Z" fill="#062C69"/>
<path d="M38.9002 32.8152L36.6486 33.6662L33.4019 24.9072L35.6593 24.062C36.7391 26.9841 37.8073 29.8769 38.9002 32.8152Z" fill="#062C69"/>
<path d="M14.6959 24.9102L11.4666 33.6589L9.20337 32.8196L12.4429 24.0547L14.6959 24.9102Z" fill="#062C69"/>
<path d="M20.9764 11.5871L20.7196 12.0986C20.6028 12.3338 20.4861 12.5675 20.3708 12.8027C20.334 12.8901 20.2711 12.9639 20.1909 13.0137C20.1106 13.0634 20.0169 13.0868 19.9228 13.0805C18.4753 13.0805 17.0277 13.0805 15.5801 13.0805C15.4256 13.0743 15.2734 13.0405 15.1307 12.9806C14.7907 12.8439 14.7207 12.5396 14.7061 12.2133C14.7003 11.8902 14.7777 11.5712 14.9308 11.2872C15.3423 10.4563 15.7557 9.62628 16.1711 8.79726C16.1979 8.75881 16.2084 8.71127 16.2005 8.66501C16.1926 8.61875 16.1668 8.57753 16.1288 8.55032C15.7013 8.12846 15.2795 7.7022 14.8578 7.27446C14.7843 7.2181 14.732 7.13813 14.7097 7.04778C14.6874 6.95744 14.6964 6.86213 14.7353 6.77764C14.7604 6.7175 14.8004 6.66485 14.8515 6.62471C14.9026 6.58457 14.9631 6.55828 15.0271 6.54834C15.0901 6.53657 15.1541 6.53067 15.2183 6.5307H20.2599C20.5955 6.5307 20.6977 6.59831 20.8202 6.90993L22.761 11.6033C22.8953 11.9266 22.7829 12.2133 22.4925 12.2485C22.38 12.2558 22.2676 12.2325 22.1671 12.1809C21.8155 12.0148 21.4711 11.8355 21.1252 11.6606C21.0785 11.6327 21.0333 11.6136 20.9764 11.5871Z" fill="#062C69"/>
<path d="M30.1989 13.8963H32.433C32.4874 13.8933 32.542 13.8933 32.5964 13.8963C32.9379 13.936 33.1042 14.2623 32.9072 14.5445C32.1572 15.6263 31.4115 16.7111 30.6338 17.7782C30.4347 18.0478 30.1836 18.2741 29.8954 18.4433C29.6073 18.6126 29.2881 18.7213 28.9571 18.763C28.5992 18.8045 28.2389 18.8217 27.8787 18.8145C27.7328 18.8145 27.6992 18.8601 27.7036 18.9968C27.7124 19.3143 27.7036 19.6318 27.7036 19.9492C27.7064 20.0318 27.6955 20.1143 27.6715 20.1932C27.6517 20.2523 27.6178 20.3057 27.573 20.3487C27.5281 20.3917 27.4735 20.4231 27.414 20.4402C27.3544 20.4572 27.2916 20.4595 27.231 20.4467C27.1703 20.4339 27.1137 20.4064 27.0659 20.3667C26.9094 20.2245 26.7631 20.0712 26.6282 19.9081C25.6904 18.839 24.7516 17.7714 23.8118 16.7052C23.5827 16.445 23.5857 16.2642 23.8118 16.0026C24.8528 14.8267 25.8942 13.6508 26.9361 12.4749C27.013 12.3847 27.1144 12.3193 27.2279 12.2867C27.495 12.2265 27.6949 12.4131 27.7022 12.713C27.7095 13.0437 27.7022 13.3745 27.7022 13.7066C27.7022 13.9036 27.7022 13.9036 27.8948 13.9036L30.1989 13.8963Z" fill="#062C69"/>
<path d="M25.8839 0.793726H27.171C27.5268 0.781537 27.8796 0.863633 28.194 1.03181C28.5085 1.19999 28.7736 1.44835 28.9629 1.75209C29.246 2.17542 29.5291 2.59874 29.8063 3.02501C29.8603 3.10879 29.9056 3.12202 29.9931 3.07646C30.3706 2.88047 30.75 2.6889 31.1313 2.50173C31.4057 2.3665 31.6742 2.45323 31.7413 2.71927C31.7635 2.83951 31.7503 2.96368 31.7033 3.07646C31.4626 3.68205 31.2101 4.28323 30.962 4.88441L29.7451 7.82418C29.621 8.11816 29.4751 8.199 29.1526 8.13874L25.058 7.39204C24.969 7.37587 24.8785 7.3597 24.7895 7.33912C24.7099 7.325 24.6364 7.287 24.5786 7.23009C24.5208 7.17317 24.4814 7.1 24.4655 7.02015C24.4482 6.94296 24.454 6.86231 24.4824 6.78848C24.5107 6.71466 24.5602 6.65101 24.6246 6.60565C24.8712 6.40134 25.1222 6.2029 25.3717 6.00152C25.6636 5.76928 25.9467 5.53116 26.2473 5.30627C26.3509 5.22837 26.3421 5.17104 26.2808 5.07109C25.5357 3.88832 24.7934 2.70213 24.054 1.5125C23.9911 1.41753 23.952 1.30857 23.9402 1.19501C23.9395 1.14073 23.9499 1.0869 23.9709 1.03687C23.9918 0.986854 24.0227 0.941728 24.0618 0.904326C24.1008 0.866924 24.1471 0.838054 24.1978 0.819527C24.2484 0.801001 24.3023 0.793216 24.3561 0.796664C24.861 0.792254 25.3717 0.793726 25.8839 0.793726Z" fill="#062C69"/>
<path d="M17.9558 4.42584C17.9787 4.34932 18.0116 4.27618 18.0535 4.2083C18.6576 3.39398 19.2516 2.57378 19.879 1.77858C20.1001 1.49412 20.3803 1.26184 20.6999 1.09806C21.0196 0.934277 21.3709 0.842954 21.7293 0.830501C21.9544 0.822583 22.1784 0.866378 22.3842 0.958568C22.59 1.05076 22.7722 1.18893 22.9171 1.3626C23.1447 1.63205 23.3543 1.91635 23.5446 2.21366C23.9824 2.84865 24.4202 3.48658 24.8477 4.12451C25.036 4.40085 25.036 4.52138 24.839 4.79772C24.2932 5.5699 23.747 6.34061 23.2002 7.10985C23.0237 7.35679 22.8369 7.40382 22.5728 7.25683C21.1135 6.45722 19.6543 5.65613 18.1951 4.85357C18.1183 4.8133 18.0548 4.75144 18.0124 4.6755C17.9699 4.59956 17.9502 4.51282 17.9558 4.42584Z" fill="#062C69"/>
<path d="M19.3757 13.8963H22.2796C22.3525 13.896 22.4253 13.9024 22.497 13.9154C22.5792 13.9269 22.6551 13.9659 22.7125 14.0262C22.77 14.0864 22.8056 14.1644 22.8137 14.2476C22.8232 14.3207 22.8276 14.3943 22.8268 14.4681C22.8268 15.7322 22.8268 16.9972 22.8268 18.2633C22.827 18.3322 22.8221 18.401 22.8122 18.4691C22.8007 18.5538 22.7614 18.6322 22.7006 18.6918C22.6398 18.7515 22.561 18.789 22.4766 18.7983C22.4448 18.8039 22.4126 18.8074 22.3803 18.8086C21.7134 18.8086 21.0465 18.8189 20.3811 18.8013C19.3932 18.7763 18.63 18.325 18.0653 17.5151C17.4028 16.5568 16.7428 15.5964 16.0852 14.6342C16.0474 14.5826 16.0146 14.5274 15.9874 14.4695C15.9624 14.4151 15.95 14.3557 15.951 14.2957C15.952 14.2357 15.9664 14.1768 15.9932 14.1232C16.02 14.0697 16.0585 14.0229 16.1057 13.9864C16.153 13.9499 16.2078 13.9246 16.2661 13.9124C16.3383 13.8997 16.4117 13.8943 16.485 13.8963H19.3757Z" fill="#062C69"/>
<path d="M34.1912 11.9884L34.0598 12.0163C34.2058 12.0589 34.2335 12.1236 34.197 12.297C34.1599 12.5246 34.0406 12.7304 33.862 12.8748C33.6834 13.0191 33.4582 13.0919 33.2295 13.079H29.6807C29.6006 13.0835 29.5208 13.0657 29.45 13.0276C29.3792 12.9895 29.3202 12.9326 29.2794 12.8629C28.7833 12.0648 28.2842 11.2667 27.7924 10.4656C27.6319 10.2025 27.7063 9.97315 27.9924 9.81294C28.7453 9.38961 29.4993 8.96726 30.2542 8.5459C30.6525 8.32394 31.0509 8.09759 31.4507 7.87857C31.5361 7.82562 31.6299 7.78783 31.728 7.76686C31.8128 7.75479 31.8991 7.77076 31.9741 7.81238C32.0491 7.85399 32.1087 7.919 32.1439 7.99763C32.764 9.1074 33.3857 10.2157 33.9927 11.3328C34.0807 11.544 34.1472 11.7636 34.1912 11.9884Z" fill="#062C69"/>
</g>
<defs>
<clipPath id="clip0_1_295">
<rect width="48" height="43" fill="white"/>
</clipPath>
</defs>
</svg>
