<svg width="48" height="44" viewBox="0 0 48 44" fill="none" xmlns="http://www.w3.org/2000/svg">
<g clip-path="url(#clip0_1_395)">
<path d="M35.6843 16.0878C36.1843 15.4726 36.599 14.9436 37.0303 14.429C39.8107 11.1516 43.1002 8.35281 46.7702 6.14218C47.1067 5.93633 47.4432 5.90282 47.7536 6.1733C48.0641 6.44378 48.0475 6.80044 47.8863 7.15948C47.3365 8.35631 46.7157 9.55313 46.2654 10.7883C45.8125 12.0904 45.4374 13.4189 45.1421 14.7665C44.6468 16.9447 43.4833 18.661 41.8386 20.1115C40.7966 21.0257 39.8008 21.9923 38.8551 23.0078C37.8147 24.1376 37.1962 25.5475 36.5422 26.931C36.4492 27.1807 36.3334 27.4211 36.1962 27.6491C35.6796 28.3672 35.644 29.1523 35.6535 29.9925C35.6796 32.7164 35.6701 35.4428 35.6535 38.1692C35.6535 40.9434 33.9947 43.1216 31.3239 43.8254C30.8386 43.9455 30.3401 44.0026 29.8404 43.9953C21.8242 44.0049 13.8072 44.0049 5.78947 43.9953C2.8699 43.9953 0.613852 42.1067 0.0616919 39.2296C0.0162718 38.9543 -0.00670803 38.6757 -0.00702662 38.3966C-0.0212453 37.8149 0.244168 37.5301 0.820026 37.5253C1.9907 37.5253 3.16375 37.5253 4.33442 37.5253C4.89132 37.5253 4.89132 37.5253 4.89132 36.9604C4.89132 26.6438 4.89132 16.3256 4.89132 6.00574C4.89132 3.96875 5.62595 2.30517 7.2611 1.08681C8.15041 0.429504 9.21449 0.0567866 10.3158 0.0168457C10.4745 0.0168457 10.6333 0.0168457 10.7897 0.0168457H39.6205C41.8363 0.0168457 43.5544 0.938396 44.7227 2.85571C45.2227 3.69098 45.4912 4.6467 45.5 5.62277C45.5142 6.20682 45.2156 6.48926 44.5781 6.49165H36.2057C35.663 6.49165 35.663 6.49166 35.663 7.02544V15.6426C35.663 15.7407 35.6748 15.8556 35.6843 16.0878ZM35.8715 1.54878C35.7175 1.54878 35.6037 1.52484 35.4876 1.52484C27.2218 1.52484 18.9552 1.52484 10.6878 1.52484C10.3585 1.51704 10.0294 1.54676 9.70672 1.61341C7.6616 2.09214 6.38902 3.727 6.38902 5.89085C6.38902 16.2633 6.38902 26.6358 6.38902 37.0083C6.38902 37.5205 6.38902 37.5205 6.908 37.5205H24.6814C25.6103 37.5205 25.7928 37.6928 25.845 38.6168C25.98 41.0798 28.4683 42.9565 30.8476 42.3916C32.8666 41.9128 34.1392 40.2971 34.1653 38.1476C34.1819 35.7803 34.1653 33.413 34.1653 31.0457C34.1653 30.9236 34.1439 30.8063 34.1297 30.6507C33.7435 30.859 33.4188 31.1103 33.0752 31.2013C32.3263 31.3928 31.5609 31.5172 30.7978 31.6345C30.5608 31.6728 30.4281 31.7518 30.3665 31.9983C30.1153 33.0156 29.8452 34.0282 29.5845 35.0431C29.4518 35.5529 29.1105 35.8138 28.6768 35.7109C28.2171 35.6032 27.9944 35.2154 28.1294 34.696C28.4967 33.2837 28.9209 31.8858 29.248 30.464C30.1684 26.3221 31.7448 22.3575 33.9165 18.7232C34.0665 18.4644 34.1482 18.1709 34.1534 17.871C34.1677 13.9104 34.1677 9.94808 34.1534 5.9842C34.116 4.91547 34.371 3.857 34.8904 2.92512C35.1819 2.46076 35.5232 2.03947 35.8715 1.54878ZM1.55465 39.0476C1.62338 39.299 1.66367 39.5048 1.73476 39.7011C2.38171 41.47 3.88416 42.4777 5.91506 42.4777C12.4794 42.4777 19.0445 42.4777 25.6103 42.4777C25.7454 42.4777 25.8805 42.4634 26.0203 42.4538C26.0203 42.3772 26.0203 42.3461 26.0014 42.3293C25.9326 42.2479 25.8592 42.1713 25.7881 42.09C25.1163 41.3519 24.6595 40.4407 24.4681 39.4569C24.4018 39.0979 24.2714 39.0117 23.9349 39.0117C16.6344 39.0213 9.33308 39.0213 2.03098 39.0117C1.89117 39.0333 1.75135 39.0333 1.55465 39.0476ZM45.3317 9.02174L45.2464 8.95232C37.8669 14.1705 33.0775 21.1886 30.8831 30.0978C31.9472 30.0643 32.914 29.9015 33.5349 29.0207C34.1182 28.2039 34.6394 27.3437 35.0942 26.4475C35.8407 24.9658 36.4734 23.4099 37.5944 22.1724C38.614 21.0631 39.6889 20.007 40.8149 19.008C42.2557 17.7179 43.3103 16.229 43.7131 14.2902C43.9501 13.201 44.2487 12.1359 44.5686 11.0611C44.7795 10.367 45.0758 9.69914 45.3317 9.02174ZM35.8052 4.93818H43.8861C43.8387 3.22194 41.8884 1.55596 39.9333 1.52724C37.8858 1.49612 35.9071 3.10944 35.8052 4.93818Z" fill="#062C69"/>
<path d="M19.2166 27.6657H12.1879C12.0575 27.6657 11.9248 27.6657 11.7945 27.6657C11.6031 27.6628 11.4202 27.5856 11.2838 27.4501C11.1473 27.3146 11.0678 27.1313 11.0617 26.9381C11.0556 26.7449 11.1234 26.5568 11.251 26.4128C11.3786 26.2688 11.5563 26.18 11.7471 26.1648C11.8786 26.1524 12.0108 26.1484 12.1428 26.1529H26.307C26.4776 26.1481 26.6483 26.1601 26.8165 26.1888C26.9858 26.2221 27.138 26.3149 27.246 26.4507C27.354 26.5866 27.4109 26.7566 27.4066 26.9308C27.4012 27.1119 27.3318 27.285 27.2109 27.4189C27.0901 27.5528 26.9258 27.6387 26.7478 27.6609C26.6034 27.6705 26.4585 27.6705 26.3141 27.6609L19.2166 27.6657Z" fill="#062C69"/>
<path d="M18.3113 32.2112H24.4728C24.6311 32.2046 24.7898 32.2126 24.9467 32.2352C25.1105 32.2699 25.2577 32.36 25.3641 32.4905C25.4705 32.621 25.5297 32.7842 25.5321 32.9532C25.5373 33.1208 25.4852 33.2851 25.3847 33.4185C25.2841 33.5518 25.1412 33.6462 24.9799 33.6857C24.7989 33.7221 24.6145 33.7382 24.4301 33.7336H12.1475C11.9889 33.7378 11.8303 33.7274 11.6735 33.7025C11.495 33.6772 11.332 33.5862 11.2157 33.4471C11.0994 33.3079 11.038 33.1303 11.0433 32.9483C11.0486 32.7663 11.1201 32.5926 11.2443 32.4606C11.3685 32.3286 11.5365 32.2474 11.7162 32.2328C11.8604 32.2204 12.0052 32.2164 12.1499 32.2208L18.3113 32.2112Z" fill="#062C69"/>
<path d="M17.3657 15.0703C17.2875 15.2235 17.2164 15.3672 17.1453 15.5108C17.0458 15.7118 16.9463 15.9105 16.8491 16.114C16.8172 16.1888 16.7632 16.2519 16.6945 16.2948C16.6258 16.3376 16.5458 16.358 16.4652 16.3533C15.2282 16.3533 13.9911 16.3533 12.7517 16.3533C12.6197 16.3484 12.4896 16.3192 12.3678 16.2672C12.0764 16.1499 12.0171 15.889 12.0053 15.6113C12.0004 15.3341 12.0665 15.0604 12.1972 14.8166C12.5503 14.0985 12.9081 13.3924 13.2589 12.6815C13.281 12.6483 13.2895 12.6077 13.2824 12.5684C13.2753 12.529 13.2533 12.494 13.221 12.4708C12.856 12.1094 12.4958 11.7527 12.1356 11.3769C12.0723 11.3289 12.0273 11.2603 12.0083 11.1827C11.9893 11.105 11.9975 11.0232 12.0313 10.9509C12.0514 10.9007 12.0836 10.8565 12.125 10.8222C12.1664 10.7879 12.2157 10.7647 12.2683 10.7546C12.3223 10.745 12.377 10.7402 12.4318 10.7402H16.7401C17.0268 10.7402 17.1098 10.7977 17.214 11.0634C17.7686 12.4038 18.3215 13.7451 18.8729 15.0871C18.9866 15.3648 18.8895 15.6089 18.6359 15.64C18.5393 15.6458 18.4429 15.626 18.3563 15.5826C18.0577 15.439 17.7615 15.2858 17.4652 15.135L17.3657 15.0703Z" fill="#062C69"/>
<path d="M25.2477 17.05H27.1578C27.2043 17.0476 27.251 17.0476 27.2976 17.05C27.3608 17.0513 27.4224 17.0702 27.4757 17.1046C27.5289 17.139 27.5718 17.1876 27.5994 17.245C27.6271 17.3024 27.6386 17.3665 27.6326 17.43C27.6266 17.4936 27.6033 17.5543 27.5653 17.6053C26.9231 18.5317 26.2857 19.4628 25.6198 20.3724C25.4505 20.6012 25.2373 20.7932 24.9931 20.9372C24.7488 21.0811 24.4784 21.1739 24.1979 21.2102C23.8927 21.2457 23.5856 21.2609 23.2784 21.2556C23.1576 21.2556 23.1244 21.2939 23.1267 21.4112C23.1267 21.6841 23.1267 21.957 23.1267 22.2275C23.1283 22.2987 23.1187 22.3698 23.0983 22.4381C23.0812 22.4885 23.0523 22.534 23.014 22.5707C22.9757 22.6074 22.9292 22.6341 22.8784 22.6487C22.8277 22.6633 22.7742 22.6652 22.7225 22.6544C22.6708 22.6436 22.6225 22.6203 22.5817 22.5865C22.4493 22.464 22.3251 22.3329 22.2096 22.1939L19.7996 19.4532C19.7538 19.4177 19.7168 19.372 19.6913 19.3197C19.6658 19.2674 19.6526 19.2099 19.6526 19.1516C19.6526 19.0933 19.6658 19.0358 19.6913 18.9836C19.7168 18.9313 19.7538 18.8856 19.7996 18.85C20.6882 17.8399 21.5769 16.8274 22.4703 15.8221C22.5329 15.7467 22.6149 15.6904 22.7073 15.6593C22.7592 15.6475 22.8131 15.6485 22.8646 15.662C22.916 15.6755 22.9636 15.7013 23.0032 15.7371C23.0428 15.7729 23.0734 15.8178 23.0924 15.8679C23.1115 15.9181 23.1183 15.9721 23.1125 16.0255C23.1125 16.308 23.1125 16.5928 23.1125 16.8777C23.1125 17.0452 23.1125 17.0452 23.276 17.0452L25.2477 17.05Z" fill="#062C69"/>
<path d="M21.5603 5.819H22.6599C22.9641 5.80927 23.2656 5.87989 23.5345 6.02388C23.8034 6.16787 24.0304 6.38025 24.1932 6.64003C24.4301 7.00386 24.6671 7.35812 24.9041 7.73153C24.9515 7.80334 24.9894 7.81531 25.0629 7.77701C25.3851 7.60706 25.7098 7.44429 26.0369 7.28391C26.0811 7.25238 26.1323 7.23204 26.1859 7.22459C26.2396 7.21713 26.2943 7.22279 26.3453 7.24108C26.3964 7.25936 26.4424 7.28975 26.4794 7.32969C26.5164 7.36963 26.5435 7.41796 26.5582 7.47062C26.5778 7.5738 26.5662 7.68055 26.525 7.77701C26.3212 8.29404 26.1032 8.81106 25.8923 9.3257C25.5431 10.1651 25.1964 11.0044 24.852 11.8438C24.8393 11.8971 24.8156 11.9471 24.7823 11.9905C24.7491 12.0338 24.707 12.0694 24.659 12.095C24.611 12.1206 24.5582 12.1356 24.504 12.1389C24.4498 12.1422 24.3955 12.1338 24.3448 12.1143L20.8446 11.4752C20.7688 11.4608 20.6906 11.4465 20.6077 11.4273C20.5398 11.4154 20.4772 11.3829 20.4281 11.3342C20.379 11.2854 20.3457 11.2227 20.3328 11.1544C20.3175 11.0885 20.3222 11.0195 20.3463 10.9563C20.3704 10.8931 20.4128 10.8387 20.4679 10.8002C20.6788 10.6254 20.892 10.4555 21.1053 10.2832C21.3541 10.0821 21.5959 9.87863 21.8494 9.68713C21.9371 9.62011 21.93 9.56985 21.8755 9.48607C21.2436 8.46957 20.6116 7.45227 19.9797 6.43417C19.9246 6.35384 19.8904 6.26084 19.8801 6.16369C19.8797 6.11719 19.8888 6.07111 19.9067 6.02829C19.9247 5.98547 19.9511 5.94682 19.9844 5.91474C20.0178 5.88265 20.0572 5.85782 20.1004 5.84176C20.1436 5.82571 20.1896 5.81878 20.2356 5.8214L21.5603 5.819Z" fill="#062C69"/>
<path d="M14.7827 8.9332C14.8033 8.86801 14.8311 8.80538 14.8656 8.7465C15.3822 8.04995 15.8917 7.34621 16.4273 6.66402C16.6167 6.42118 16.8562 6.22299 17.1292 6.08326C17.4022 5.94353 17.7021 5.86562 18.0079 5.85498C18.2006 5.84842 18.3922 5.88617 18.5684 5.96537C18.7445 6.04457 18.9005 6.16315 19.0246 6.31216C19.2191 6.54313 19.398 6.78704 19.5602 7.04222C19.9346 7.58558 20.3043 8.13133 20.674 8.67708C20.7128 8.71442 20.7437 8.75935 20.7649 8.80914C20.786 8.85892 20.7969 8.91254 20.7969 8.96672C20.7969 9.02089 20.786 9.0745 20.7649 9.12429C20.7437 9.17408 20.7128 9.21901 20.674 9.25634L19.2734 11.2359C19.2498 11.2832 19.2163 11.3247 19.1752 11.3576C19.1341 11.3905 19.0864 11.4139 19.0354 11.4262C18.9844 11.4385 18.9313 11.4394 18.8799 11.4289C18.8285 11.4183 18.78 11.3966 18.7378 11.3651L14.9983 9.30661C14.9299 9.27277 14.873 9.21927 14.8346 9.15283C14.7962 9.08639 14.7782 9.00998 14.7827 8.9332Z" fill="#062C69"/>
<path d="M15.996 17.05H18.4795C18.5414 17.0519 18.6031 17.0575 18.6643 17.0668C18.7347 17.0772 18.7996 17.1111 18.8486 17.1632C18.8976 17.2153 18.9278 17.2825 18.9345 17.354C18.9432 17.4158 18.9471 17.4782 18.9463 17.5407C18.9463 18.6258 18.9463 19.7101 18.9463 20.7937C18.9472 20.8529 18.9432 20.9122 18.9345 20.9708C18.9245 21.0433 18.8909 21.1104 18.8389 21.1615C18.787 21.2127 18.7198 21.2449 18.6477 21.2532C18.6201 21.2556 18.5924 21.2556 18.5648 21.2532C17.9961 21.2532 17.4249 21.2532 16.8562 21.2532C16.4615 21.2503 16.0737 21.1479 15.7282 20.9551C15.3826 20.7624 15.0902 20.4856 14.8774 20.1498C14.3103 19.3295 13.7455 18.5069 13.183 17.6819C13.1509 17.6377 13.1231 17.5904 13.1001 17.5407C13.0782 17.4941 13.0671 17.4431 13.0676 17.3915C13.0682 17.3399 13.0803 17.2892 13.1032 17.243C13.126 17.1969 13.1589 17.1566 13.1994 17.1253C13.24 17.0939 13.287 17.0722 13.3371 17.062C13.3978 17.0492 13.4599 17.0435 13.5219 17.0452L15.996 17.05Z" fill="#062C69"/>
<path d="M28.6602 15.4151L28.5488 15.439C28.6721 15.4749 28.6981 15.53 28.6673 15.6784C28.636 15.8736 28.5341 16.0503 28.3813 16.174C28.2286 16.2978 28.0358 16.36 27.8403 16.3486H24.8069C24.7382 16.3524 24.6698 16.337 24.6092 16.304C24.5485 16.2711 24.4981 16.2219 24.4633 16.1619C24.0391 15.4773 23.6126 14.7951 23.1931 14.1081C23.1595 14.0623 23.137 14.0092 23.1275 13.9529C23.118 13.8967 23.1216 13.839 23.1382 13.7845C23.1548 13.73 23.1839 13.6802 23.2231 13.6391C23.2623 13.598 23.3104 13.5668 23.3637 13.548C24.006 13.1842 24.6505 12.8299 25.2951 12.4613L26.3189 11.8892C26.3926 11.8453 26.4725 11.813 26.5558 11.7935C26.6284 11.783 26.7024 11.7967 26.7666 11.8325C26.8308 11.8684 26.8816 11.9244 26.9113 11.9922C27.4421 12.9496 27.973 13.8927 28.492 14.8502C28.5664 15.0324 28.6228 15.2216 28.6602 15.4151Z" fill="#062C69"/>
</g>
<defs>
<clipPath id="clip0_1_395">
<rect width="48" height="44" fill="white"/>
</clipPath>
</defs>
</svg>
