<svg width="58" height="48" viewBox="0 0 58 48" fill="none" xmlns="http://www.w3.org/2000/svg">
<g clip-path="url(#clip0_1_318)">
<path d="M57.7888 19.2355C57.4551 17.781 56.7335 16.4401 55.6981 15.3508C54.6628 14.2615 53.351 13.4629 51.8977 13.0373C50.4444 12.6118 48.9021 12.5744 47.4293 12.9293C45.9565 13.2841 44.6064 14.0182 43.5178 15.0562C42.4292 16.0941 41.6414 17.3985 41.2355 18.8351C40.8295 20.2716 40.82 21.7886 41.2079 23.23C41.5959 24.6714 42.3673 25.9852 43.4428 27.0362C44.5183 28.0873 45.8591 28.8377 47.3274 29.2103C47.6339 29.2863 47.6932 29.3953 47.585 29.6764C47.1625 30.7377 46.74 31.7965 46.3536 32.8705C46.3201 33.0178 46.2303 33.1468 46.1027 33.2307C45.9752 33.3147 45.8196 33.3471 45.6684 33.3214C44.7384 33.3214 43.8059 33.3214 42.8759 33.3214C42.8759 33.8482 42.8759 34.3768 42.8759 34.907H46.3768C47.2063 34.907 47.3506 34.8006 47.6391 34.0483C48.1697 32.6552 48.7159 31.2621 49.2414 29.8689C49.2732 29.7495 49.3459 29.6445 49.4473 29.5716C49.5486 29.4987 49.6724 29.4623 49.7978 29.4687C50.4538 29.4338 51.105 29.3379 51.7427 29.1825C53.8572 28.6058 55.6648 27.2509 56.7905 25.3989C57.9162 23.5468 58.2737 21.3397 57.7888 19.2355ZM52.8169 25.9149C52.8169 27.146 52.817 27.1612 51.6165 27.5411C49.9021 28.1058 48.0299 27.9792 46.4103 27.189C46.3039 27.1556 46.2127 27.0867 46.1525 26.9942C46.0923 26.9017 46.0668 26.7914 46.0805 26.6824C46.1269 25.9428 46.0599 25.1829 46.2042 24.4635C46.5262 22.8348 48.0564 21.8014 49.7927 21.9306C50.575 22.0029 51.306 22.3457 51.8555 22.8981C52.405 23.4505 52.7375 24.1766 52.7938 24.9473C52.8144 25.2386 52.7938 25.535 52.7938 25.8314H52.8118L52.8169 25.9149ZM47.8838 18.7542C47.8838 18.3511 48.0466 17.9646 48.3365 17.6795C48.6264 17.3945 49.0195 17.2344 49.4294 17.2344C49.6336 17.2283 49.8369 17.2625 50.0275 17.3349C50.218 17.4073 50.3918 17.5165 50.5388 17.656C50.6857 17.7955 50.8027 17.9625 50.883 18.1472C50.9632 18.3319 51.005 18.5306 51.006 18.7314C51.0136 18.9356 50.9793 19.1393 50.905 19.3301C50.8307 19.521 50.7181 19.6952 50.5738 19.8423C50.4295 19.9893 50.2565 20.1063 50.0652 20.1861C49.8739 20.266 49.6682 20.3071 49.4604 20.3069C49.253 20.3073 49.0476 20.2673 48.856 20.1894C48.6644 20.1114 48.4904 19.997 48.3439 19.8527C48.1974 19.7084 48.0813 19.5371 48.0024 19.3486C47.9234 19.1601 47.8831 18.9581 47.8838 18.7542ZM54.4502 25.7098C54.5197 23.5694 53.6568 21.9914 51.8406 20.8844C52.5697 19.9776 52.8453 18.9822 52.5233 17.8753C52.3302 17.2058 51.9103 16.6213 51.3331 16.2187C50.7391 15.7911 50.0128 15.5792 49.2778 15.6189C48.5427 15.6586 47.8444 15.9476 47.3016 16.4365C46.0445 17.5688 45.9492 19.0936 47.044 20.8971C46.2068 21.3864 45.5169 22.0858 45.045 22.9235C44.6088 23.7812 44.4023 24.734 44.4448 25.692C42.353 23.7594 41.5699 19.5951 44.285 16.5986C44.9162 15.8957 45.6887 15.3291 46.5538 14.9344C47.4189 14.5398 48.3577 14.3257 49.3112 14.3057C50.2646 14.2857 51.2119 14.4603 52.0933 14.8183C52.9747 15.1763 53.771 15.71 54.4321 16.3859C57.289 19.3216 56.6836 23.5669 54.4502 25.7022V25.7098Z" fill="#062C69"/>
<path d="M12.2183 33.3264C12.1004 33.3455 11.9795 33.3208 11.879 33.2572C11.7786 33.1935 11.7058 33.0954 11.6748 32.9819C11.2626 31.875 10.8324 30.7706 10.3996 29.6713C10.2992 29.418 10.3326 29.299 10.6289 29.223C12.7245 28.703 14.541 27.4196 15.7108 25.6327C16.8806 23.8457 17.3163 21.6886 16.9299 19.5976C16.1571 15.0864 11.5382 11.948 6.99149 12.8321C4.84124 13.2191 2.92384 14.4023 1.6342 16.1378C0.344561 17.8734 -0.219092 20.0291 0.059317 22.161C0.512704 26.1175 4.03418 29.3395 8.07602 29.4737C8.23529 29.4569 8.39536 29.4974 8.52657 29.5878C8.65779 29.6781 8.75124 29.8122 8.78959 29.9651C9.3048 31.3659 9.84835 32.7514 10.3842 34.1496C10.6418 34.8006 10.8092 34.9095 11.5408 34.9095H15.4976V33.3264C14.3977 33.3137 13.308 33.3188 12.2183 33.3264ZM3.52926 25.6363C2.37261 24.8156 1.22885 22.2623 1.75179 19.6838C2.05865 18.2572 2.82331 16.9653 3.93314 15.9983C5.04297 15.0312 6.43931 14.4402 7.91647 14.3123C9.39364 14.1844 10.8735 14.5262 12.1382 15.2876C13.4029 16.049 14.3855 17.1896 14.9412 18.5414C16.0953 21.3277 15.0726 24.2989 13.5424 25.6819C13.5759 23.5896 12.7516 21.9862 10.92 20.892C11.6439 19.9675 11.9246 18.9644 11.5846 17.8524C11.3729 17.143 10.9071 16.533 10.2734 16.1351C9.65715 15.7396 8.92094 15.5654 8.18919 15.642C7.45744 15.7186 6.77504 16.0413 6.25732 16.5555C5.09036 17.7055 5.03368 19.2456 6.13623 20.9047C4.32526 21.9837 3.46486 23.5668 3.52926 25.6363ZM10.1008 18.7795C10.0934 19.1838 9.92537 19.5692 9.63266 19.8532C9.33994 20.1373 8.94579 20.2974 8.53455 20.2993C8.32698 20.3014 8.12112 20.2624 7.92923 20.1845C7.73733 20.1067 7.56335 19.9917 7.41766 19.8463C7.27197 19.7009 7.15755 19.5281 7.08124 19.3383C7.00492 19.1485 6.96825 18.9455 6.97345 18.7415C6.97104 18.5413 7.00937 18.3426 7.08619 18.1571C7.16301 17.9716 7.27676 17.8031 7.42077 17.6615C7.56478 17.5199 7.73614 17.4081 7.92476 17.3326C8.11338 17.257 8.31544 17.2193 8.51909 17.2217C8.72837 17.2168 8.93648 17.2538 9.13079 17.3304C9.3251 17.407 9.50157 17.5216 9.64948 17.6673C9.79739 17.813 9.91366 17.9867 9.99124 18.1778C10.0688 18.369 10.1061 18.5737 10.1008 18.7795ZM5.46389 27.1662C5.38839 27.1146 5.32465 27.048 5.27675 26.9708C5.22885 26.8936 5.19783 26.8075 5.18567 26.7179C5.15833 26.3622 5.15403 26.0052 5.17279 25.6489C5.1239 25.1892 5.16891 24.7246 5.30516 24.2822C5.44141 23.8398 5.66616 23.4287 5.96622 23.0729C6.40454 22.5766 6.98153 22.2179 7.62547 22.0413C8.26941 21.8648 8.95192 21.8782 9.58816 22.08C10.2177 22.2838 10.7721 22.6659 11.1818 23.1782C11.5914 23.6905 11.8382 24.3103 11.8912 24.96C11.9272 25.5628 11.9169 26.1682 11.8912 26.771C11.88 26.849 11.851 26.9234 11.8063 26.9888C11.7617 27.0541 11.7027 27.1087 11.6336 27.1485C10.6798 27.638 9.62037 27.8951 8.54448 27.8982C7.46859 27.9012 6.40768 27.6502 5.45101 27.1662H5.46389Z" fill="#062C69"/>
<path d="M26.7447 0.301384C22.896 1.34497 20.2118 4.93927 20.4436 8.74634C20.7012 12.8827 23.656 16.1199 27.7416 16.7151C28.0636 16.7632 28.1666 16.8823 28.1641 17.2014C28.1641 18.4249 28.1641 19.6483 28.1641 20.8743C28.7102 20.8743 29.2615 20.8743 29.8102 20.8743C29.8102 19.6601 29.8102 18.446 29.8102 17.2318C29.8102 16.9076 29.89 16.7658 30.243 16.7252C32.1558 16.4499 33.9165 15.5432 35.2361 14.1541C36.5558 12.765 37.3558 10.9759 37.5049 9.0807C37.9686 3.30297 32.4068 -1.2336 26.7447 0.301384ZM32.3373 13.4349C32.3373 14.4481 32.3373 14.4481 31.361 14.7875C30.5004 15.0991 29.5854 15.2396 28.6692 15.2009C27.7529 15.1622 26.8536 14.9451 26.0234 14.5621C25.8877 14.5231 25.7711 14.4367 25.6957 14.3191C25.6203 14.2016 25.5911 14.061 25.6138 13.9238C25.673 13.1639 25.5906 12.404 25.758 11.6643C25.95 10.9063 26.4163 10.2431 27.0697 9.79877C27.7231 9.35445 28.5188 9.1595 29.3078 9.25041C30.1272 9.32473 30.8896 9.69441 31.4485 10.2883C32.0073 10.8822 32.3229 11.6583 32.3347 12.4673C32.3347 12.6902 32.3347 12.9156 32.3347 13.1411L32.3373 13.4349ZM27.4196 6.08925C27.4217 5.78686 27.5145 5.4918 27.6865 5.2411C27.8584 4.9904 28.1019 4.79524 28.3863 4.68011C28.6707 4.56497 28.9833 4.535 29.2849 4.59394C29.5866 4.65288 29.8638 4.79812 30.0818 5.01142C30.2998 5.22473 30.4489 5.49659 30.5103 5.7929C30.5717 6.08921 30.5428 6.39675 30.4271 6.67694C30.3114 6.95713 30.1141 7.19746 29.86 7.3678C29.6059 7.53813 29.3062 7.63087 28.9987 7.63437C28.7907 7.63883 28.584 7.60197 28.3909 7.52599C28.1978 7.45002 28.0222 7.3365 27.8748 7.19222C27.7273 7.04795 27.611 6.8759 27.5328 6.68638C27.4546 6.49685 27.4161 6.29375 27.4196 6.08925ZM34.004 13.0094C33.9783 11.9962 33.852 11.0716 33.3729 10.2231C32.905 9.40021 32.2208 8.71609 31.3919 8.24228C32.5099 6.24629 32.3527 4.69611 30.9462 3.61453C30.3471 3.1575 29.6029 2.92358 28.8453 2.95417C28.0877 2.98477 27.3655 3.27791 26.8065 3.78171C25.7941 4.69611 25.2274 6.50212 26.5875 8.21695C24.7972 9.29093 23.9187 10.8791 23.9728 13.0296C21.7162 10.8538 21.1752 6.62624 23.9883 3.71585C24.6368 3.05269 25.4154 2.52571 26.2769 2.16674C27.1385 1.80778 28.065 1.6243 29.0007 1.62737C29.9364 1.63045 30.8617 1.82003 31.7208 2.18465C32.5799 2.54927 33.3548 3.08136 33.9989 3.74878C36.781 6.65917 36.2349 10.8538 34.004 13.0043V13.0094Z" fill="#062C69"/>
<path d="M42.8682 32.8122C42.8928 32.6058 42.8367 32.398 42.7115 32.2306C42.5862 32.0632 42.401 31.9488 42.1933 31.9105C41.5828 31.7129 40.9645 31.5381 40.3643 31.3127C40.1658 31.2304 40.0027 31.0826 39.9032 30.8947C39.6649 30.416 39.4559 29.9237 39.2772 29.4205C39.209 29.2339 39.209 29.0297 39.2772 28.843C39.5503 28.2554 39.8749 27.6905 40.166 27.1105C40.4081 26.6317 40.3617 26.3506 39.9805 25.9681C39.2266 25.2183 38.4675 24.4728 37.7032 23.7315C37.5531 23.5867 37.3608 23.4914 37.1532 23.4588C36.9455 23.4261 36.7327 23.4577 36.544 23.5491C35.9927 23.8176 35.4415 24.0861 34.9031 24.3748C34.7839 24.4495 34.6463 24.4907 34.505 24.4938C34.3638 24.4969 34.2243 24.4619 34.1019 24.3926C33.657 24.1687 33.1944 23.9807 32.7186 23.8303C32.603 23.8004 32.498 23.74 32.4149 23.6556C32.3318 23.5712 32.2738 23.466 32.2472 23.3515C32.0565 22.747 31.8573 22.1458 31.6495 21.548C31.4769 21.0414 31.2296 20.8768 30.6938 20.8743H29.7999C29.2512 20.8743 28.6999 20.8743 28.1538 20.8743H27.4789C27.2728 20.8768 27.0725 20.9423 26.9059 21.0617C26.7393 21.181 26.6146 21.3483 26.5489 21.5404C26.3347 22.0768 26.1549 22.6259 26.0105 23.1843C25.8894 23.7695 23.3108 24.3318 23.3108 24.3318C22.4813 24.309 22.064 24.0405 21.4483 23.734C21.3294 23.675 21.1959 23.6509 21.0634 23.6643C20.931 23.6778 20.8053 23.7284 20.7012 23.81C20.1191 24.2685 18.9856 25.1727 18.88 25.3121C18.6747 25.546 18.4544 25.7668 18.2205 25.9732C17.8212 26.3784 17.7774 26.6368 18.0376 27.1459C18.321 27.7007 18.5992 28.2554 18.9031 28.7949C18.9684 28.9012 19.0028 29.0229 19.0028 29.147C19.0028 29.2711 18.9684 29.3928 18.9031 29.4991C18.6816 29.955 18.5502 30.4515 18.3132 30.8998C18.0556 31.4064 17.3189 31.6014 16.6233 31.68C16.3122 31.713 16.0244 31.8575 15.8148 32.086C15.6053 32.3145 15.4887 32.6109 15.4873 32.9186V33.3315V34.9146V36.3356C15.4882 36.5583 15.5734 36.7727 15.7263 36.937C15.8791 37.1014 16.0887 37.2039 16.3142 37.2247C16.8507 37.2607 17.3783 37.3786 17.8779 37.5742C18.0498 37.6543 18.1902 37.7878 18.2772 37.9542C18.5156 38.4494 18.7271 38.9567 18.9109 39.4739C18.9792 39.6597 18.9792 39.8632 18.9109 40.0489C18.6533 40.6113 18.3467 41.1533 18.0634 41.7055C17.9597 41.9092 17.9236 42.1397 17.9601 42.3646C17.9966 42.5895 18.1039 42.7975 18.2669 42.9593C18.9985 43.6838 19.7326 44.4082 20.472 45.125C20.8713 45.5151 21.1701 45.5658 21.6673 45.3226C22.2443 45.044 22.8085 44.735 23.3958 44.4791C23.5976 44.4094 23.8175 44.4094 24.0192 44.4791C24.5316 44.6566 25.0338 44.8612 25.5236 45.0921C25.6936 45.1705 25.8303 45.3049 25.91 45.472C26.1342 46.0622 26.3145 46.6702 26.518 47.2705C26.7215 47.8708 26.9559 48.0177 27.5484 48.0304C28.5788 48.0304 29.6093 48.0304 30.6397 48.0304C31.2399 48.0304 31.4872 47.8505 31.6701 47.2857C31.853 46.7208 32.0565 46.0774 32.2806 45.4872C32.3591 45.3189 32.4948 45.1827 32.6645 45.1022C33.1153 44.892 33.5996 44.7476 34.0427 44.5247C34.1826 44.4438 34.343 44.4035 34.5053 44.4084C34.6676 44.4134 34.8251 44.4633 34.9597 44.5526C35.4543 44.8312 35.9721 45.0744 36.4848 45.3125C36.9974 45.5506 37.304 45.5328 37.7187 45.1326C38.4709 44.3998 39.2197 43.6635 39.965 42.9239C40.3617 42.5313 40.403 42.2552 40.1428 41.7486C39.862 41.1938 39.5786 40.6417 39.2798 40.0996C39.2168 39.9997 39.182 39.8851 39.1788 39.7676C39.1757 39.6502 39.2043 39.5339 39.2618 39.4309C39.491 38.9648 39.6533 38.4658 39.8852 37.9998C39.985 37.8118 40.1466 37.6627 40.3437 37.5767C40.9414 37.3488 41.5622 37.174 42.1727 36.9764C42.6725 36.8143 42.8528 36.5914 42.8579 36.0848C42.8579 35.6973 42.8579 35.3072 42.8579 34.9197C42.8579 34.3894 42.8579 33.8609 42.8579 33.334C42.8708 33.144 42.8682 32.9794 42.8682 32.8122ZM41.2582 34.8969C41.2582 35.0134 41.2531 35.1299 41.2428 35.2464C41.2265 35.3335 41.1902 35.4157 41.1366 35.4868C41.083 35.5579 41.0136 35.6161 40.9336 35.6568C40.3772 35.8695 39.8002 36.0418 39.2283 36.214C39.0571 36.2623 38.9012 36.3524 38.775 36.476C38.6489 36.5996 38.5567 36.7526 38.507 36.9207C38.2107 37.6806 37.8836 38.4557 37.5358 39.2004C37.4508 39.3539 37.4063 39.5259 37.4063 39.7007C37.4063 39.8754 37.4508 40.0474 37.5358 40.2009C37.8114 40.7075 38.051 41.2369 38.3395 41.741C38.3742 41.7843 38.3996 41.8341 38.4142 41.8873C38.4288 41.9406 38.4324 41.9961 38.4247 42.0507C38.417 42.1054 38.3982 42.1579 38.3694 42.2052C38.3406 42.2525 38.3024 42.2936 38.2571 42.3261C37.8604 42.6908 37.4843 43.0683 37.103 43.4583C37.0442 43.5346 36.9571 43.5851 36.8607 43.5989C36.7643 43.6126 36.6663 43.5885 36.5878 43.5318C36.0597 43.2532 35.5162 42.9999 34.9855 42.7238C34.8217 42.6394 34.6391 42.5966 34.4542 42.5993C34.2693 42.6019 34.088 42.6499 33.9267 42.739C33.1865 43.0767 32.4361 43.3823 31.6753 43.6559C31.4944 43.702 31.3285 43.7927 31.1932 43.9195C31.058 44.0462 30.9579 44.2049 30.9024 44.3803C30.7453 44.8869 30.5392 45.3935 30.4104 45.9001C30.4069 45.9768 30.3857 46.0517 30.3485 46.1192C30.3112 46.1867 30.2589 46.245 30.1953 46.2896C30.1318 46.3343 30.0588 46.3641 29.9818 46.377C29.9048 46.3898 29.8259 46.3852 29.751 46.3637C29.5227 46.351 29.2939 46.351 29.0657 46.3637C27.9348 46.3637 27.8756 46.3789 27.5948 45.2922C27.3372 44.2942 26.8993 43.6078 25.7761 43.4102C25.23 43.3139 24.7276 42.972 24.2305 42.7212C24.0811 42.6385 23.9125 42.595 23.741 42.595C23.5695 42.595 23.4009 42.6385 23.2515 42.7212C22.7183 42.9973 22.1748 43.2506 21.6492 43.5318C21.6041 43.5645 21.5527 43.588 21.4981 43.6008C21.4436 43.6136 21.3869 43.6154 21.3316 43.6062C21.2763 43.597 21.2235 43.5769 21.1762 43.5471C21.129 43.5174 21.0884 43.4786 21.0567 43.433C20.6961 43.0531 20.3174 42.6858 19.931 42.3312C19.888 42.3012 19.8515 42.2631 19.8236 42.2191C19.7957 42.1751 19.777 42.1261 19.7686 42.0749C19.7602 42.0238 19.7623 41.9714 19.7747 41.9211C19.7871 41.8707 19.8096 41.8232 19.8408 41.7815C20.1268 41.2622 20.3818 40.7278 20.6626 40.206C20.7494 40.0508 20.7949 39.8765 20.7949 39.6994C20.7949 39.5223 20.7494 39.348 20.6626 39.1928C20.3174 38.4557 19.998 37.7034 19.7095 36.9435C19.6607 36.7674 19.567 36.6066 19.4371 36.4762C19.3072 36.3458 19.1456 36.2503 18.9675 36.1988C18.3931 36.0291 17.8289 35.829 17.2545 35.6593C17.1564 35.6413 17.0691 35.5867 17.011 35.5069C16.9529 35.4271 16.9284 35.3283 16.9428 35.2312C16.9428 35.1172 16.9428 35.0058 16.9428 34.8918C16.9428 34.4688 16.9428 34.0483 16.9428 33.6253C16.9299 33.5166 16.9593 33.4071 17.0252 33.3188C17.0938 33.2451 17.1837 33.1938 17.2828 33.1719C17.8573 33.0047 18.4214 32.8046 18.9959 32.6298C19.1597 32.5826 19.3091 32.4961 19.4305 32.378C19.5519 32.26 19.6416 32.1141 19.6914 31.9535C19.9954 31.1683 20.3277 30.3907 20.6781 29.6257C20.7597 29.4775 20.8024 29.3117 20.8024 29.1432C20.8024 28.9747 20.7597 28.8088 20.6781 28.6606C20.3998 28.1363 20.1448 27.6019 19.8563 27.0851C19.8237 27.0444 19.7997 26.9977 19.7856 26.9477C19.7716 26.8978 19.7678 26.8456 19.7745 26.7942C19.7812 26.7428 19.7983 26.6932 19.8247 26.6483C19.8512 26.6035 19.8864 26.5642 19.9284 26.5329C20.3354 26.1555 20.7012 25.7477 21.1263 25.383C21.1936 25.3364 21.2709 25.3057 21.3523 25.2934C21.4336 25.2811 21.5167 25.2875 21.5951 25.3121C22.1413 25.5527 22.6745 25.8186 23.2026 26.1049C23.372 26.1945 23.5619 26.2404 23.7543 26.2382C23.9466 26.236 24.1353 26.1857 24.3026 26.0922C25.0264 25.7629 25.7658 25.464 26.5128 25.193C26.7053 25.1411 26.8807 25.0409 27.022 24.9024C27.1633 24.7639 27.2657 24.5917 27.3191 24.4027C27.4789 23.848 27.6875 23.3085 27.855 22.7563C27.8662 22.6809 27.9036 22.6117 27.9609 22.5604C28.0183 22.5091 28.0919 22.479 28.1692 22.4751H28.2517C28.7669 22.4751 29.2821 22.4928 29.8154 22.4751H29.9235C30.0284 22.459 30.1354 22.4844 30.2213 22.5456C30.3072 22.6068 30.365 22.6989 30.3821 22.8019C30.547 23.3414 30.7427 23.8708 30.8973 24.4103C30.9509 24.5994 31.0537 24.7715 31.1955 24.9096C31.3374 25.0478 31.5134 25.1472 31.7062 25.1981C32.4446 25.4561 33.1693 25.7502 33.8778 26.0795C34.0554 26.1824 34.2573 26.2376 34.4634 26.2399C34.6695 26.2421 34.8726 26.1912 35.0525 26.0922C35.5677 25.8186 36.0829 25.5527 36.6239 25.3197C36.7017 25.2941 36.7846 25.2872 36.8657 25.2995C36.9468 25.3119 37.0238 25.3431 37.0901 25.3906C37.4972 25.7452 37.863 26.1505 38.2571 26.5102C38.3037 26.541 38.3435 26.5809 38.3739 26.6273C38.4044 26.6737 38.425 26.7258 38.4344 26.7803C38.4438 26.8347 38.4418 26.8905 38.4286 26.9443C38.4154 26.998 38.3912 27.0485 38.3576 27.0927C38.0742 27.5993 37.8424 28.1211 37.5564 28.6303C37.4671 28.7897 37.4203 28.9688 37.4203 29.1508C37.4203 29.3328 37.4671 29.5119 37.5564 29.6713C37.9093 30.4059 38.2185 31.1658 38.507 31.9257C38.5542 32.0945 38.6442 32.2488 38.7685 32.3742C38.8929 32.4995 39.0475 32.5918 39.218 32.6425C39.7924 32.8147 40.3566 33.0148 40.931 33.1846C41.0186 33.2054 41.0987 33.2491 41.1629 33.3112C41.2029 33.3557 41.2328 33.4081 41.2505 33.4649C41.2683 33.5217 41.2736 33.5816 41.2659 33.6405C41.2582 34.061 41.2737 34.4814 41.2582 34.8969Z" fill="#062C69"/>
<path d="M33.9861 31.6851C34.0383 31.7356 34.0789 31.7965 34.1053 31.8637C34.1317 31.9309 34.1432 32.0029 34.139 32.0748C34.1349 32.1467 34.1152 32.2169 34.0813 32.2807C34.0473 32.3446 33.9999 32.4006 33.9423 32.445L33.7516 32.5919C33.6258 32.6839 33.5054 32.7828 33.391 32.8882L33.3292 32.949L33.1746 33.101L32.6336 33.6304L32.2009 34.0559C31.7655 34.4815 31.3302 34.9045 30.8974 35.3224L30.0292 36.1811C29.6119 36.5915 29.1998 36.9993 28.7876 37.4096L28.4218 37.7693C28.341 37.8615 28.2421 37.9367 28.131 37.9903C28.0198 38.0438 27.8988 38.0746 27.7752 38.0808C27.7358 38.0847 27.6961 38.0847 27.6567 38.0808C27.5872 38.0697 27.5196 38.0492 27.4557 38.0201L27.381 37.9821L27.3476 37.9618H27.2935L27.0127 37.6629L26.9611 37.6097L26.6598 37.3083L26.3377 36.9917L26.0595 36.708L25.905 36.556L25.4748 36.1355L25.1837 35.8493L24.604 35.2819L24.4856 35.1578L24.4212 35.0894L24.4057 35.0717L24.3671 35.0286C24.3192 34.9797 24.2819 34.9219 24.2572 34.8585C24.2325 34.7951 24.2211 34.7276 24.2235 34.6598C24.2259 34.592 24.2421 34.5253 24.2712 34.4638C24.3003 34.4023 24.3416 34.3471 24.3928 34.3016L24.4752 34.2256L24.5242 34.1775L24.8462 33.8761L25.2481 33.4936L25.2996 33.4455C25.3476 33.3972 25.4049 33.3589 25.4681 33.3327C25.5314 33.3066 25.5993 33.2931 25.668 33.2931C25.7366 33.2931 25.8045 33.3066 25.8678 33.3327C25.9311 33.3589 25.9884 33.3972 26.0363 33.4455L26.1188 33.5215L26.1394 33.5417L26.2141 33.6152L26.2888 33.6861L26.4099 33.8001L26.4279 33.8178L26.549 33.9394L27.0333 34.4182C27.193 34.5752 27.3553 34.7322 27.515 34.8918C27.6052 34.9779 27.7185 35.0641 27.7726 35.0565C27.8102 35.0443 27.8451 35.0254 27.8756 35.0007L27.9735 34.9197L27.9967 34.8969C28.8777 34.0374 29.7562 33.1753 30.632 32.3107L31.9948 30.9733L32.1828 30.7935L32.2781 30.7023C32.3272 30.6542 32.3857 30.6164 32.45 30.591C32.5143 30.5657 32.5831 30.5534 32.6524 30.5548C32.7216 30.5562 32.7899 30.5713 32.8531 30.5993C32.9162 30.6273 32.973 30.6674 33.02 30.7175L33.2442 30.9454L33.2854 30.986V30.9986C33.3652 31.0797 33.4451 31.1607 33.5275 31.2519L33.9861 31.6851Z" fill="#062C69"/>
<path d="M41.1629 33.3138C41.0987 33.2517 41.0185 33.208 40.931 33.1872C40.3566 33.0175 39.7924 32.8173 39.2179 32.6451C39.0475 32.5944 38.8928 32.5021 38.7685 32.3768C38.6442 32.2514 38.5542 32.0971 38.5069 31.9283C38.2184 31.1684 37.899 30.4085 37.5512 29.679C37.4619 29.5195 37.4151 29.3405 37.4151 29.1585C37.4151 28.9764 37.4619 28.7974 37.5512 28.6379C37.8269 28.1313 38.0664 27.6019 38.3524 27.1004C38.386 27.0562 38.4102 27.0056 38.4234 26.9519C38.4366 26.8982 38.4386 26.8424 38.4292 26.7879C38.4198 26.7334 38.3992 26.6814 38.3688 26.635C38.3383 26.5885 38.2985 26.5487 38.2519 26.5178C37.8578 26.1505 37.4791 25.7579 37.085 25.3982C37.0178 25.3533 36.9408 25.3246 36.8602 25.3144C36.7796 25.3043 36.6978 25.3131 36.6213 25.34C36.088 25.573 35.5651 25.8466 35.0499 26.1125C34.87 26.2115 34.6669 26.2624 34.4608 26.2602C34.2547 26.258 34.0528 26.2027 33.8752 26.0999C33.1667 25.7706 32.4419 25.4764 31.7036 25.2184C31.5107 25.1675 31.3347 25.0681 31.1929 24.93C31.0511 24.7918 30.9483 24.6197 30.8947 24.4306C30.7376 23.8911 30.5418 23.3617 30.3795 22.8222C30.3624 22.7193 30.3046 22.6271 30.2187 22.5659C30.1328 22.5047 30.0257 22.4794 29.9209 22.4954H29.8102C29.295 22.5132 28.7797 22.4954 28.2465 22.4954H28.1641C28.0867 22.4993 28.0131 22.5295 27.9558 22.5807C27.8985 22.632 27.861 22.7012 27.8498 22.7766C27.6823 23.3288 27.4737 23.8683 27.314 24.423C27.2605 24.6121 27.1581 24.7842 27.0168 24.9228C26.8755 25.0613 26.7001 25.1614 26.5077 25.2133C25.7606 25.4844 25.0213 25.7833 24.2974 26.1125C24.1301 26.2061 23.9415 26.2563 23.7491 26.2585C23.5567 26.2607 23.3669 26.2149 23.1974 26.1252C22.6693 25.8491 22.1361 25.573 21.59 25.3324C21.5115 25.3078 21.4284 25.3015 21.3471 25.3138C21.2657 25.3261 21.1884 25.3567 21.1211 25.4033C20.7038 25.7681 20.3303 26.1632 19.9232 26.5533C19.8812 26.5846 19.846 26.6238 19.8196 26.6687C19.7931 26.7135 19.7761 26.7631 19.7693 26.8145C19.7626 26.8659 19.7664 26.9181 19.7804 26.9681C19.7945 27.018 19.8185 27.0647 19.8511 27.1055C20.1396 27.6121 20.3947 28.1567 20.6729 28.681C20.7545 28.8292 20.7972 28.995 20.7972 29.1635C20.7972 29.332 20.7545 29.4979 20.6729 29.6461C20.3225 30.4059 19.9902 31.1886 19.6862 31.9739C19.6364 32.1344 19.5467 32.2803 19.4253 32.3983C19.3039 32.5164 19.1546 32.6029 18.9907 32.6502C18.4162 32.8249 17.8521 33.025 17.2776 33.1922C17.1785 33.2142 17.0886 33.2654 17.02 33.3391C16.9541 33.4274 16.9247 33.5369 16.9376 33.6456C16.9376 34.0661 16.9376 34.4866 16.9376 34.9121C16.9376 35.0261 16.9376 35.1376 16.9376 35.2515C16.9233 35.3487 16.9477 35.4475 17.0058 35.5273C17.0639 35.6071 17.1512 35.6617 17.2493 35.6796C17.8238 35.8493 18.3879 36.0494 18.9624 36.2191C19.1404 36.2707 19.302 36.3662 19.4319 36.4965C19.5618 36.6269 19.6555 36.7878 19.7043 36.9638C19.9928 37.7237 20.3122 38.4836 20.6574 39.2131C20.7442 39.3683 20.7898 39.5426 20.7898 39.7197C20.7898 39.8968 20.7442 40.0711 20.6574 40.2263C20.3766 40.7481 20.1216 41.2826 19.8357 41.8018C19.8044 41.8436 19.7819 41.891 19.7695 41.9414C19.7571 41.9918 19.755 42.0441 19.7634 42.0953C19.7718 42.1464 19.7905 42.1955 19.8184 42.2394C19.8463 42.2834 19.8828 42.3215 19.9258 42.3515C20.3122 42.7061 20.6986 43.0734 21.0516 43.4533C21.0832 43.4989 21.1238 43.5377 21.1711 43.5675C21.2183 43.5972 21.2712 43.6173 21.3265 43.6265C21.3818 43.6358 21.4384 43.6339 21.493 43.6211C21.5475 43.6084 21.5989 43.5849 21.644 43.5521C22.1593 43.271 22.7131 43.0177 23.2464 42.7416C23.3958 42.6588 23.5643 42.6153 23.7358 42.6153C23.9073 42.6153 24.0759 42.6588 24.2253 42.7416C24.7405 42.9949 25.2377 43.3343 25.7709 43.4305C26.8941 43.6281 27.3294 44.3145 27.5896 45.3125C27.8704 46.3992 27.9296 46.384 29.0605 46.384C29.2888 46.3713 29.5175 46.3713 29.7458 46.384C29.8207 46.4056 29.8997 46.4101 29.9766 46.3973C30.0536 46.3844 30.1266 46.3546 30.1902 46.3099C30.2537 46.2653 30.306 46.207 30.3433 46.1395C30.3806 46.0721 30.4017 45.9972 30.4052 45.9205C30.534 45.4139 30.7401 44.9073 30.8973 44.4007C30.9527 44.2252 31.0528 44.0666 31.188 43.9398C31.3233 43.813 31.4892 43.7223 31.6701 43.6762C32.4309 43.3976 33.1814 43.092 33.9216 42.7593C34.0828 42.6703 34.2641 42.6223 34.449 42.6196C34.6339 42.6169 34.8165 42.6597 34.9803 42.7441C35.511 43.0202 36.0545 43.2735 36.5826 43.5521C36.6611 43.6088 36.7591 43.6329 36.8555 43.6192C36.9519 43.6054 37.039 43.555 37.0978 43.4787C37.4688 43.0886 37.8552 42.7188 38.2519 42.3464C38.2972 42.314 38.3354 42.2728 38.3642 42.2255C38.393 42.1782 38.4118 42.1257 38.4195 42.0711C38.4272 42.0165 38.4237 41.9609 38.409 41.9077C38.3944 41.8544 38.369 41.8047 38.3344 41.7613C38.051 41.2547 37.8063 40.7304 37.5306 40.2213C37.4456 40.0678 37.4011 39.8958 37.4011 39.721C37.4011 39.5462 37.4456 39.3742 37.5306 39.2207C37.8784 38.4608 38.2055 37.7009 38.5018 36.941C38.5515 36.7729 38.6437 36.6199 38.7698 36.4963C38.896 36.3727 39.0519 36.2826 39.2231 36.2343C39.795 36.0621 40.372 35.8899 40.9284 35.6771C41.0084 35.6364 41.0778 35.5783 41.1314 35.5072C41.185 35.436 41.2213 35.3538 41.2376 35.2667C41.2376 35.1502 41.2427 35.0337 41.253 34.9172C41.253 34.5018 41.253 34.0813 41.253 33.6507C41.2635 33.5915 41.2609 33.5307 41.2453 33.4726C41.2298 33.4144 41.2016 33.3603 41.1629 33.3138ZM29.3491 42.1792C25.1346 42.3616 21.4019 39.0003 21.2087 34.8513C21.1526 33.8203 21.306 32.7886 21.66 31.8165C22.014 30.8444 22.5615 29.9514 23.2704 29.1897C23.9794 28.428 24.8356 27.8128 25.789 27.3802C26.7425 26.9475 27.7741 26.706 28.8235 26.6698C33.0715 26.5001 36.8093 29.8436 36.9819 33.9749C37.0437 35.0102 36.8938 36.0472 36.5412 37.0246C36.1885 38.0019 35.6403 38.8999 34.9287 39.6654C34.2172 40.4309 33.3568 41.0485 32.3985 41.4815C31.4401 41.9146 30.4032 42.1544 29.3491 42.1868V42.1792Z" fill="#062C69"/>
</g>
<defs>
<clipPath id="clip0_1_318">
<rect width="58" height="48" fill="white"/>
</clipPath>
</defs>
</svg>
