<svg width="48" height="48" viewBox="0 0 48 48" fill="none" xmlns="http://www.w3.org/2000/svg">
<path d="M43.6398 30.8401L38.6398 39.5001C37.6598 41.2201 35.8398 42.1201 33.9998 42.0001H29.9998V46.0001L24.9998 37.0001L29.9998 28.0001V32.0001H35.6398L31.1998 24.3001L39.8598 19.3001L43.4598 25.5401C44.4998 27.0801 44.6398 29.1401 43.6398 30.8401ZM18.4198 6.12012H28.4198C30.3798 6.12012 32.0798 7.26012 32.8998 8.90012L34.8998 12.3801L38.3598 10.3801L33.0798 19.2001L22.7798 19.3801L26.2398 17.3801L23.4198 12.4801L18.9998 20.1801L10.3198 15.1801L13.9198 8.94012C14.7398 7.28012 16.4398 6.12012 18.4198 6.12012ZM10.0998 39.5201L5.09982 30.8601C4.11982 29.1601 4.25982 27.1201 5.27982 25.5801L7.27982 22.1201L3.81982 20.1201L14.0998 20.2801L19.3998 29.1201L15.9398 27.1201L13.1198 32.0001H21.9998V42.0001H14.7998C12.9398 42.1401 11.0998 41.2201 10.0998 39.5201Z" fill="#062C69"/>
</svg>
